<?xml version="1.0" standalone="no"?>
<!DOCTYPE svg PUBLIC "-//W3C//DTD SVG 1.1//EN" "http://www.w3.org/Graphics/SVG/1.1/DTD/svg11.dtd" >
<svg xmlns="http://www.w3.org/2000/svg">
<metadata>Generated by IcoMoon</metadata>
<defs>
<font id="geoportail-icons" horiz-adv-x="1024">
<font-face units-per-em="1024" ascent="960" descent="-64" />
<missing-glyph horiz-adv-x="1024" />
<glyph unicode="&#x20;" horiz-adv-x="512" d="" />
<glyph unicode="&#xe000;" glyph-name="uniE000" d="M250.665 234.668c0 0 138-114 206-8 0 0 22 36 28 76 0 0 2 36 38 56 0 0 4-52 52-74 4-2 8-4 12-2 0 0 0 4-6 8-10 4-10 2-14 4-10 10-24 24-24 34l34-14c0 0 22-8 26-40 0 0 2-24 14-46 0 0-78 8-124-78l-8 10c0 0 0-28-18-38 0 0-2 18-14 22 0 0-2-30-24-44 0 0 4 18-10 28 0 0-18-42-56-40 0 0 6 14 2 34 0 0-38-36-72-22 0 0 16 14 14 40 0 0-44-26-86 38 0 0 12-12 48 8-2-2-26 24-18 48zM308.665 848.668c0 0 48-8 10-92 0 0-18-66 18-94 0 0 6-6 10-14 0 0-46-18-14-102 0 0-32 10-42 28 0 0 6 4 10 20 0 0-24-10-42 16l22 14c0 0-20 0-44 32l28 12c0 0-28 6-38 34h26c0 0-24 42-16 64 0 0 18-14 32-18 0 0 14 22-6 44 0 0-8 18 2 44 0 0 0-4 18-8 0 0 16 0 26-36l4 4c-2 0-16 26-4 52zM694.665 350.668l30 4c0 0 142 16 140 202 0 0-4 110-84 160-6 4-18 12-30 16s-42 10-62-6c-10-4-18-16-22-24-2-10-4-32 28-60l12 14c0 0-22 18-16 34 6 18 22 16 24 16 20 0 84-4 120-126 0 0 20-96-50-170 0 0 10 46-42 122 0 0-46 66 18 146l-20 12c0 0-82-94-14-174 0 0 52-64 30-106-4-8-16-20-26-24-12-2-44-10-44-10zM772.665 732.668c0 0 36 44 142 54 0 0 8-30-52-48 0 0 4-12 54 2 0 0-20-48-82-24 0 0-26 8-44 2zM528.665 932.668c0 0 20-10 20-50l96-34c0 0 10 24 48 38 0 0-4 6-30 2 0 0-4 10-18 10 0 0-6-8 0-22 0 0-14-8-18-10 0 0-2 10-8 18 0 0 18 6 18 20 0 0-8-4-12-4 0 0 14 18-6 34 0 0-12-8-16-28 0 0-10 8-16 8 0 0-4-8 2-24 0 0-6-8-16-10 0 0-10 4-14 18l8 2c0 0 8 4 12 8 0 0-8 4-16 4l-2 2h2c0 0 0 24-34 18zM856.665 74.668c-4 10-8 22-8 22h32c-30 0-32 48-32 48-8 42 18 68 18 68-80-2-100 48-100 48-36 36-50 122-50 122s-2 8-4 14c-4 6-6 8-14 16-10 12-54 38-58 40-24 18-36 36-36 36-14-18-32-22-32-22l-2 8c76 48 46 122 46 122 2 16 14 36 14 36 54 72 18 174 18 174 14 24-4 28-4 28-20 2-20-6-20-6h-4v2l-56 20c-18 10-26 8-26 8-2-10 0-14 0-14 4-4 10-4 10-4 18 6 28-8 28-8l-2-2c-6 6-12 4-12 4-14 2-14-6-14-6-4-6-6 2-6 2v4c-16 4-14 24-14 24-26-2-48-10-48-10-10-4-6-10-6-10l8-10-4-14c-10-24 14-24 14-24h34c26-4 8-20 8-20 0-30-16-24-16-24-22 16-34 2-34 2-6-14 10-16 10-16 34-2 12-26 12-26-8-18-28-16-28-16-54 6-64-20-64-20-18-20-16-76-16-76-14 32 2 74 2 74-50-16-32-106-32-106-22 48-8 78-8 78-42-6-30-70-30-70l16-42-44-22c-36-22-60-2-60-2-64 60-136 2-136 2 36-24 76-12 76-12-10-16-52-34-52-34 70-26 90 4 90 4 8-28-6-44-6-44 26-8 58 26 58 26-2-16-14-28-14-28 24 0 52 32 52 32 0-16-10-28-10-28 34 6 54 36 54 36 0-16-10-30-10-30 20 2 34 18 34 18-38 28-28 48-28 48 10-44 50-52 50-52 30 6 50 56 50 56 24 52 52 48 52 48-36-16-38-36-38-36-12-54-32-62-32-62 6-20 50-32 50-32 12-6 28-14 38-20 72-36 78-102 78-102 12-68 66-86 66-86 106-34 98-110 98-110-6-112-74-154-74-154v0c20-6 32 0 32 0 6-16 0-28 0-28 56 6 84 68 84 68 14-18 36-18 36-18-16 22-10 70-10 70l20-14-10 26-4 18c8-8 26-16 26-16 4 8 0 16-6 24zM556.665 822.668c0 0 4 4 4 0h2l-2-2c0 0-4 0-8-2 0 0-4-2-6 2zM494.665 458.668l-20-6h-8l2 2 10 2c24 14 36 58 36 58 18 42 48 46 48 46l4-4-6-2c-30-12-34-46-34-46-2-42-32-50-32-50zM524.665 462.668l-4 4c28 12 38 44 38 44 10 56 40 56 40 56l-4-4c-20-8-24-46-24-46 0-46-46-54-46-54zM526.665 360.668c0 0 30 16 46-18l14-24c0 0 8-14 8-18 0 0-4 14-28 22 0 0-38 12-40 38zM548.665 874.668v-6l78-28 8 4zM432.665 836.668c0 0 2-60 56-60 0 0 8 6 42-12l-2-8c0 0-12 14-36 10 0 0-36-14-58 4-2 0-38 30-2 66z" />
<glyph unicode="&#xe001;" glyph-name="uniE001" d="M520 630.668c0 0 0 0 0 0 2 0 2 0 2 0s0 0 2 0c0 0 0 0 0 0 36 0 66 20 82 50 18 34 12 78-14 118-46 68-54 124-54 124s0 0 0 0c0 2-2 2-2 4 0 0 0 2-2 2 0 2 0 2 0 2-2 2-2 2-4 4 0 0 0 0-2 0 0 0-2 2-4 2 0 0 0 0 0 0s0 0-2 0c0 0 0 0-2 0 0 0-2 0-2 0 0-2 0-2-2-2 0 0-2 0-4-2 0 0 0 0 0 0-2-2-2-2-4-4 0 0 0 0 0-2 0 0-2-2-2-4 0 0 0 0 0 0 0-2-8-56-54-124-26-40-32-84-14-118 16-30 46-50 82-50zM480 780.668c20 30 34 58 42 82 8-24 22-52 42-82 22-30 26-60 14-84-10-20-30-30-54-32 0 0-2 0-4 0-24 2-44 12-54 32-12 24-8 54 14 84zM770 122.668c2 2 2 2 2 4-2 0-2 2-2 2 0 2 0 2 0 4 0 0 0 0-2 0 0 2 0 2 0 2s0 2-2 2c0 0 0 0 0 0-2 2-2 2-4 2 0 0-2 2-2 2s-2 0-2 0-2 0-4 0c0 0-2 0-2 0-2 0-2-2-4-2 0 0 0 0-2 0 0 0-40-24-110-32 32 8 58 38 72 78 22 74 58 112 58 112 2 0 2 2 2 2s0 2 2 2c0 2 0 2 0 4 0 0 0 0 0 2 2 0 2 2 2 4-2 0-2 0-2 2 0 0 0 2 0 2 0 2 0 2-2 2 0 0 0 0 0 2 0 0 0 0-2 2 0 0 0 0 0 0-2 0-2 0-4 2 0 0-2 0-2 0 0 2-2 2-2 2-2 0-2 0-4 0s-2 0-2-2c-2 0-2 0-4 0 0 0 0 0-2 0 0-2-40-26-110-34 34 10 58 38 72 80 22 74 58 112 58 112 2 0 2 0 2 0 0 2 0 2 2 4 0 0 0 2 0 2 0 2 0 2 0 4 2 0 2 2 2 2-2 2-2 2-2 4 0 0 0 2 0 2s0 2-2 2c0 0 0 0 0 0 0 2 0 2-2 2 0 0 0 0 0 2-2 0-2 0-4 0 0 2-2 2-2 2s-2 0-2 0-2 0-4 0c0 0-2 0-2 0-2 0-2 0-4 0 0-2 0-2-2-2 0 0-40-24-110-32 34 10 58 38 72 78 22 74 58 112 58 114 2 0 2 0 2 0 0 2 0 2 2 2 0 2 0 2 0 4 0 0 0 2 0 2 2 2 2 2 2 4-2 0-2 2-2 2 0 2 0 2 0 4 0 0 0 0-2 0 0 2 0 2 0 2s0 2-2 2c0 0 0 0 0 0-2 2-2 2-4 2 0 0-2 2-2 2s-2 0-2 0-2 0-4 0c0 0-2 0-2 0-2 0-2-2-4-2 0 0 0 0-2 0 0 0-44-28-122-34-46-4-80-26-96-58-2-6-2-10-4-14 0 4-2 8-4 14-14 32-50 54-96 58-78 6-122 34-122 34s-2 0-2 0c0 0-2 2-2 2-2 0-2 0-4 0 0 0-2 0-2 0-2 0-2 0-4 0 0 0-2-2-2-2-2 0-2 0-4-2 0 0 0 0 0 0s0-2-2-2c0 0 0 0 0-2 0 0 0 0 0 0-2-2-2-2-2-4 0 0 0-2 0-2 0-2 0-2 0-4 0 0 0-2 0-2 0-2 0-2 2-4 0 0 0 0 0-2 2 0 2 0 2 0 0-2 36-38 60-114 12-40 38-68 70-78-70 8-110 32-110 32s-2 0-2 2c0 0-2 0-2 0-2 0-2 0-4 0 0 0-2 0-2 0-2 0-2 0-4 0 0 0-2 0-2-2-2 0-2 0-4 0 0-2 0-2 0-2s0 0-2-2c0 0 0 0 0 0s0-2 0-2c-2 0-2-2-2-2 0-2 0-2 0-4 0 0 0-2 0-2 0-2 0-2 0-4 0 0 0-2 2-2 0-2 0-2 0-4 2 0 2 0 2 0s36-38 60-112c12-42 38-70 70-80-70 8-110 34-110 34s-2 0-2 0c0 0-2 0-2 0-2 2-2 2-4 2 0 0-2 0-2 0-2 0-2 0-4-2 0 0-2 0-2 0-2 0-2-2-4-2 0 0 0 0 0 0 0-2 0-2-2-2 0-2 0-2 0-2s0 0 0-2c-2 0-2-2-2-2 0-2 0-2 0-4 0 0 0-2 0-2 0-2 0-2 0-4 0 0 0 0 2-2 0 0 0-2 0-2 2 0 2-2 2-2s36-36 60-112c12-42 38-70 70-78-70 8-110 32-110 32s-2 0-2 0c0 0-2 2-2 2-2 0-2 0-4 0 0 0-2 0-2 0-2 0-2 0-4 0 0 0-2-2-2-2-2 0-2 0-4-2 0 0 0 0 0 0s0-2-2-2c0 0 0 0 0-2 0 0 0 0 0 0-2-2-2-2-2-4 0 0 0-2 0-2 0-2 0-2 0-4 0 0 0-2 0-2 0-2 0-2 2-2 0-2 0-2 0-4 2 0 2 0 2 0 0-2 36-38 60-114 12-44 42-72 78-80 4-2 10-2 16-2 26 0 50 12 68 34 0 0 0 2 2 2 0 0 0 0 0 0 10 12 16 24 18 38 4-14 10-26 18-38 0 0 0 0 2 0 0 0 0-2 0-2 18-22 42-34 68-34 6 0 12 0 18 2 36 8 64 36 78 80 22 74 58 112 58 114 2 0 2 0 2 0 0 2 0 2 2 2 0 2 0 2 0 4 0 0 0 2 0 2zM676 194.668c-10-34-28-54-54-60-18-4-40 4-54 22 0 0 0 0 0 0 0 2 0 2 0 2-14 18-18 40-10 58 10 22 34 36 68 40 34 2 62 8 84 16-12-20-24-46-34-78zM524 216.668c0 4-2 8-4 12-14 30-42 50-80 58 24 0 48 12 64 34 0 0 0 0 2 0 0 0 0 0 0 2 10 10 16 24 18 36 4-12 10-26 18-36 0-2 0-2 2-2 0 0 0 0 0 0 16-22 40-34 64-34-38-8-66-28-80-58-2-4-2-8-4-12zM676 376.668c-10-32-28-54-54-58-18-4-40 4-54 22 0 0 0 0 0 0s0 0 0 2c-14 16-18 38-10 56 10 24 34 38 68 40 34 4 62 10 84 16-12-18-24-44-34-78zM558 582.668c10 22 34 38 68 40 34 4 62 10 84 16-12-20-24-46-34-78s-28-54-54-58c-18-4-40 4-54 20 0 2 0 2 0 2s0 0 0 0c-14 18-18 40-10 58zM524 542.668c4-14 10-26 18-38 0 0 0 0 2 0 0 0 0-2 0-2 16-20 40-32 64-34-38-6-66-26-80-56-2-4-2-8-4-14 0 6-2 10-4 14-14 30-42 50-80 56 24 2 48 14 64 34 0 0 0 2 2 2 0 0 0 0 0 0 10 12 16 24 18 38zM372 560.668c-10 32-22 58-34 78 22-6 50-12 84-16 34-2 58-18 68-40 8-18 6-40-8-58 0 0-2 0-2 0s0 0 0-2c-14-16-34-24-54-20-24 4-44 26-54 58zM372 376.668c-10 34-22 60-34 78 22-6 50-12 84-16 34-2 58-16 68-40 8-18 6-40-8-56 0-2-2-2-2-2s0 0 0 0c-14-18-34-26-54-22-24 4-44 26-54 58zM372 194.668c-10 32-22 58-34 78 22-8 50-14 84-16 34-4 58-18 68-40 8-18 6-40-8-58 0 0-2 0-2-2 0 0 0 0 0 0-14-18-34-26-54-22-24 6-44 26-54 60zM426-47.332c-24 4-44 26-54 58s-22 58-34 78c22-6 50-12 84-16 34-2 58-18 68-40 8-18 6-40-8-58 0 0-2 0-2 0s0 0 0-2c-14-16-34-24-54-20zM524 32.668c0 4-2 8-4 14-14 28-42 50-80 56 24 2 48 14 64 34 0 0 0 0 2 0 0 2 0 2 0 2 10 12 16 24 18 36 4-12 10-24 18-36 0 0 0 0 2-2 0 0 0 0 0 0 16-20 40-32 64-34-38-6-66-28-80-56-2-6-2-10-4-14zM676 10.668c-10-32-28-54-54-58-18-4-40 4-54 20 0 2 0 2 0 2s0 0 0 0c-14 18-18 40-10 58 10 22 34 38 68 40 34 4 62 10 84 16-12-20-24-46-34-78z" />
<glyph unicode="&#xe002;" glyph-name="uniE002" d="M202-83.332c-106 0-192 86-192 192s86 192 192 192c106 0 192-86 192-192s-86-192-192-192zM202 272.668c-90 0-164-72-164-164 0-90 74-164 162-164 92 0 164 74 164 164 2 92-70 164-162 164zM308 132.668h-90v90h-38v-90h-90v-38h90v-90h38v90h90zM1014 586.668c-2 6-8 12-16 12l-300 46-130 272c-4 6-12 10-18 10-8 0-14-4-16-10l-138-268-300-42c-8-2-12-8-16-14-2-6 0-14 6-18l214-214-6-46c12-4 24-10 34-18l14 68c2 6-2 14-6 18l-196 192 272 36c6 2 12 6 14 10l124 246 118-248c2-6 8-10 14-10l272-42-198-188c-4-4-6-10-4-18l44-270-242 128c-2 2-6 4-8 4-4 0-8-2-10-4l-114-60c2-12 4-26 4-40l120 60 266-144c4 0 8-4 10-4 10 0 18 10 18 20 0 4 0 8 0 10l-48 296 218 210c6 4 6 12 4 20z" />
<glyph unicode="&#xe003;" glyph-name="uniE003" d="M606 142.667h-562c-24 0-44 20-44 44v424c0 24 20 44 44 44h268c24 0 46-20 46-44v-154h116v-32h-148v186c0 6-6 12-14 12h-268c-6 0-12-6-12-12v-424c0-6 6-12 12-12h562c8 0 14 4 14 12v226c0 2 0 4-2 6l28 16c4-6 6-14 6-22v-226c0-24-20-44-46-44zM222 426.667h-90c-24 0-42 20-42 40v92c0 22 20 40 42 40h90c24 0 42-18 42-40v-92c0-20-20-40-42-40zM132 574.667c-10 0-16-8-16-14v-92c0-8 8-16 16-16h90c10 0 16 8 16 16v92c0 8-8 14-16 14zM584-19.333h-518c-36 0-66 30-66 68 0 36 30 66 66 66h518c36 0 66-30 66-66 2-38-30-68-66-68zM66 82.667c-18 0-34-16-34-34 0-20 16-36 34-36h518c18 0 34 16 34 36 0 18-16 34-34 34zM60-3.333c-28 0-52 22-52 52 0 28 24 50 52 50s52-22 52-50c0-30-24-52-52-52zM60 80.667c-18 0-32-14-32-32s14-32 32-32c18 0 32 14 32 32s-16 32-32 32zM590-3.333c-28 0-52 22-52 52 0 28 24 50 52 50s52-22 52-50c0-30-24-52-52-52zM590 80.667c-18 0-32-14-32-32s14-32 32-32c18 0 32 14 32 32s-14 32-32 32zM420-3.333c-28 0-52 22-52 52 0 28 24 50 52 50s52-22 52-50c0-30-24-52-52-52zM420 80.667c-18 0-32-14-32-32s14-32 32-32c18 0 32 14 32 32s-16 32-32 32zM238-3.333c-28 0-52 22-52 52 0 28 24 50 52 50s52-22 52-50c0-30-24-52-52-52zM238 80.667c-18 0-32-14-32-32s14-32 32-32c18 0 32 14 32 32s-16 32-32 32zM510 314.667c-18 0-34 14-34 32s16 34 34 34c18 0 32-16 32-34s-14-32-32-32zM510 368.667c-12 0-22-10-22-22 0-10 10-20 22-20 10 0 20 10 20 20s-10 22-20 22zM510 250.667c-54 0-98 42-98 96s44 98 98 98c54 0 96-44 96-98s-42-96-96-96zM510 412.667c-36 0-66-30-66-66s30-64 66-64c36 0 64 28 64 64s-28 66-64 66zM710 776.667l24-18-274-370-26 20zM746 700.667l30-12-180-388-30 14zM762 678.667c-34 0-64 28-64 62 0 36 30 64 64 64s62-28 62-64c0-34-28-62-62-62zM762 772.667c-18 0-32-14-32-32 0-16 14-30 32-30 16 0 30 14 30 30 0 18-14 32-30 32zM912 406.667h-4l-62 16c-20 6-42 12-44 12l-34 12 82 44 14 48-144 156 22 22 158-170-24-76-28-16c2 0 4-2 6-2l58-14c44 0 80 36 80 80 0 34-64 72-88 82l-2 2-122 164 26 18 116-158c20-10 102-52 102-110 0-60-50-110-112-110z" />
<glyph unicode="&#xe004;" glyph-name="uniE004" d="M1024 740.667c-2 6-6 10-12 12l-352 100c-8 2-14 0-18-4l-128-146-130 146c-4 4-10 6-16 4l-352-100c-6 0-10-4-12-12-2-4 0-10 4-14l132-150-96-188c-2-2-2-8 0-14 2-4 6-6 12-8l336-98c0 0 2-2 4-2 8 0 12 4 14 8l94 192 116-192c2-6 8-8 14-8 0 0 2 0 4 2l338 100c6 2 10 6 10 10 2 4 2 8 0 14l-98 182 132 150c4 6 6 12 4 16zM504 496.667c0 2-4 2-6 4l-280 78 296 84 292-84-298-80c-2 0-2 0-4-2zM368 818.667l118-132-320-90-118 132zM388 302.667l-304 90 84 168 304-86zM642 304.667l-104 170 320 86 90-166zM862 596.667l-318 90 116 132 320-92zM880 286.667l-280-80-78 142c0 0 0 0-2 2 0 0 0 0 0 0s-2 2-2 2c0 0 0 2 0 2-2 0-2 0-4 0 0 0 0 0 0 0s-2 0-2 0-2 0-2 0c-2 0-2 0-4 0 0 0 0 0 0 0s0 0-2 0c0 0 0 0-2 0 0 0-2-2-2-2s0-2 0-2c0 0-2 0-2 0s0 0-2-2l-76-142-276 80c-4 0-8 0-10-4-4-2-6-6-6-10v-164c0-4 4-10 8-12l372-112c2 0 2 0 4 0s2 0 4 0l372 112c4 2 8 6 8 12v166c0 4-2 8-6 10-2 2-6 2-10 2zM154 258.667l274-80c6 0 12 2 14 8l58 106v-276l-346 102zM870 118.667l-346-102v276l58-106c2-6 10-8 16-8l272 80z" />
<glyph unicode="&#xe005;" glyph-name="uniE005" d="M450 892.667c0 6-6 8-8 8 4-2 8-4 8-8zM990 592.667c2 6-8 10-10 2-104-200-252-194-306-342-32-90 18-192 106-224 90-32 192 12 226 104 52 146-66 238-16 460zM980 268.667l-128-50 38 88 76 32c4-24 10-48 14-70zM954 522.667c2 6 12 2 10-4-14-64-12-116-4-158l-58-24 28 68-22 8-28-70-24 58c34 28 70 64 98 122zM840 386.667l30-70-38-90-52 114c18 14 40 28 60 46zM702 232.667l60-156c-50 32-76 96-60 156zM778 96.667l-66 166c14 26 30 46 50 62l58-126zM794 60.667l178 78c-28-68-106-102-178-78zM984 166.667l-186-80 44 104 144 56c2-26 4-52-2-80zM496 890.667c-4 6-10 10-18 12-10 2-22 2-32-4-18-8-38-24-58-48h-2c-8-8-54-62-90-120-4-6-6-8-6-10-2 2-4 8-10 10 0 0-2 0-4 0-2 6-8 26-8 50-2 18 0 20 0 20 2 0 4-2 6-4l2 2c0 0-4 4-8 4 0 0-4-2-4-18 2-24 6-46 8-52-2 0-4-4-4-4l-2 2c0 0 4 2 4 2s-4-2-4-2l2-2c0 0-2 0-2 0-4 6-16 24-32 42-12 10-16 10-16 10-2-2 0-8 0-8v0c0 2 0 4 0 6 2 0 4 2 16-10 16-16 30-34 32-40-2-2-2-2-2-2 0-6 0-10 2-14-2 0-4-2-10-2-70 10-138 6-150 6h-2c-30 0-54-2-72-10-12-4-20-12-24-20s-4-16-2-22c6-16 32-26 46-30 0 0 2-2 4-2 14-6 24-12 28-16 0-2 0-4 0-4 2-4 4-10 28-34 18-20 38-18 52-12 6 4 12 8 16 10-8-26-8-48-2-66s26-28 70-30c22-2 38 2 54 8 12 4 20 10 28 20 18 16-8 92-12 102-4 6-6 16-8 24 4-10 12-28 18-40s10-12 12-12c4 2 4 4 0 16-6 12-14 30-18 40 4-6 10-14 14-22s42-78 68-76c12 2 20 4 32 8 14 8 28 18 42 36 26 34 34 56 22 74-10 16-26 30-50 42 4 0 10 2 18 6 14 6 28 18 26 46-4 32-8 38-8 42-2 0-2 2-2 4-2 6 2 18 4 32 0 2 2 4 2 4 6 16 14 40 6 56zM474-13.333c-4 0-8 0-10 2-2 0-2 0-4 0-10-2-16-4-22 2s-10 14-6 24c-2 2-2 4-4 12 0 2 0 8 0 12h-2c-12 0-16 0-20 2-2 0-2 0-4 0s-6-4-10-4c-2 0-6 0-10 2 0 0 0-2 0-2-4-2-14-4-22 4-6 4-14 8-14 10-2 2-4 4-6 4-2 4-2 6-4 8s-4 4-6 6c0 0-2 4-2 12-8 0-10 6-22 22-4 6-4 14 2 20 4 4 12 6 18 4 0 0 2-2 2-2 2 0 4 2 4 2 2 2 4 4 6 6 0 0 2 2 2 4 2 0 2 0 4 0-4 2-6 4-8 10-2 4-6 20 6 28 4 2 8 4 10 6 0 6 2 10 6 16 0 0 0 0 0 2 2 4 4 8 6 10 0 2 4 8 10 10 0 2 0 4 2 6-2 0-4 2-6 2-12 4-14 4-16 8 0 0-14 16-8 30 0 2 2 4 2 6 0 0 2 2 2 2 2 4 4 8 6 10 0 0 0 0 2 0-4 0-6 0-8 0-6 0-14 2-16 4-14 2-16 12-16 16s2 8 2 10c0 2 2 2 2 2s0 0 0 2c-2 2-4 2-6 6-2 2-12 22-14 28-2 4-2 6-2 10-14-2-18-4-24 0-10 4-12 14-12 24v2c0 2 0 8 0 10 0 0-12 20-4 32 2 2 4 4 4 4 0 2 0 6 0 10 2 8 8 10 12 10 2 4 6 4 10 4 8 0 16-6 16-16 0-2 0-2 0-2 2-6 2-14-4-20-2-2-2-4-2-4-2 0-2-2-2-4 0 0 0 0 0 0 2-8 4-16 4-22 0 0 2 0 2 0 4 0 8 2 8 2 10 0 18-10 20-16 4-4 8-14 8-18 2-2 8-14 10-20 2 0 4-2 6-4 6-6 6-12 6-18 0 0 0 0 2 0 8 2 12-2 18-8h4c4-2 14-12 16-18 4-8 2-16-6-24-2-2-4-4-4-6 0 0-2 0-2-2s0-2 0-2 2-2 4-2c18-8 20-10 24-14 4-6 2-12 0-20 0-2-2-4-2-4 0-2 0-2 0-4s2-6 2-8c0-10-10-16-14-18-2 0-4-2-8-2 0-2 0-4-2-6 0 0 0 0 0 0 0-2 0-4 0-4 0-6 0-10-6-14 0 0 0 0 2 0 0-2 6-10 2-18 0-2 2-4 2-6 0-8-4-12-20-24 0 0 0-2 0-2-2-2-2-4-4-6 2-4 4-10 2-16 0 0 0 0 0-2 2-2 4-6 6-12 2 0 2-2 4-2 0 0 0 0 0 0 4 2 10 4 16 2 2 0 2 2 6 2 8 4 14-2 18-4 0 0 0 0 2 0s8 0 12 0h4c10 0 18-6 20-10 6-6 8-12 10-30 0-2 0-2 0-4 2 0 2-2 4-4 4 0 6-2 8-2 6 2 14 2 18 0 0 2 2 2 2 2 2 4 2 4 2 4 2 4 6 10 24 8 4 0 6-2 8-4 2 6 6 8 10 10 2 2 4 2 6 2 0 0 0 2 0 2 0 6-2 16 10 22 0 0 2 0 2 0 4 0 8 0 10 0 0 4 4 6 4 10 4 2 8 4 10 6h2c6 4 12 4 24 2 2 0 4-2 6-2 8 4 12 4 20 0 2 2 6 2 6 4 6 0 18-4 22-6 0 0 2 0 4 0 10 0 16-6 18-14s-4-16-12-18c-4-2-8 0-10 0-4 0-10 2-14 2 0 0-2 0-2 2-10-4-14-2-20 2 0 0-2-2-2-2-2-2-6-2-6-2-6-2-14 0-16 4 0-6-2-12-8-16 0 0-10-4-18-6 0-2 0-4-4-6-4-4-6-10-12-12 2-6 0-10-2-12-2-4-8-8-16-8-2 0-6 2-8 4 0 0 0 0 0 0-4 0-10 0-16 4 0 0 0 0-2 0-2-4-4-8-8-8-4-2-16-4-24-2-6-6-8-6-12-6zM752 394.667c-4 0-8 2-10 6 0 0-2 0-4 2 0 0-4 2-4 4-2 2-4 4-4 8 0 0-2 0-2 2s0 2-2 4c-2 0-6 2-8 2-2-2-2-4-2-4-4-4-10-10-22-6-12 2-14 14-14 20 0 2-2 6-2 8s0 2 0 2c-4 0-8 2-8 2-2 0-6 2-10 8 0 0 0 0-2 0-8 0-10 0-26 18-2 0-4 0-6 2-6 2-10 8-14 20l2 4c0 0 0 2 0 4-2 2-2 2-4 2-4 8-2 14 0 22 0 0 0 4-2 4-4 0-6 0-10 0-2 0-2 2-4 2-8 0-14 4-18 12 0 0-4 8-6 10-4 10-6 16-4 18-4 4-6 4-6 8-2 0-6 2-6 2-4 4-6 8-6 12 0 2 0 4 2 8-2 2-4 2-4 6 0 0 0 4 0 10 0 0-2 2-2 4-4 6-2 14-2 16 0 0 0 2 0 2s0 0 0 2c0 0 0 2 0 2s0 0 0 0c-4 2-4 4-4 6 0 0 0 0 0 0s-2 2-2 2c-4 6-4 12-4 14s0 6 0 8c0 4 0 8 4 16 0 2 0 4 0 4 0 6 2 10 6 14 0 2 0 6 0 6s0 0 0 2-2 6-2 8c0 2 0 4 0 6-4 2-6 4-8 6-6 4-6 10-6 16 0 8 8 16 16 16s14-4 16-10c2 0 2-2 2-2h2c4-2 10-6 12-16 0-4 0-4 0-8s-2-6-2-8c0-2 0-4 0-6 0 0 0 2 0 2 0-2 0-16 0-18s0-6 0-6c0-2-2-6-2-8 4-6 2-12 0-18 0-2-2-2-2-4l-2-2c0 0 0-2 0-4 2-2 6-10 6-16 0 0 0 0 0 0 0-2 0-4 0-8 2 0 2-2 4-4 6-4 6-10 4-18 2-2 2-6 2-8 0 0 0-2 0-4 2 0 2-2 4-2 14-6 14-14 14-18 6-2 14-6 16-14 0 0 0-2 2-2 0 0 0 0 2 0 0 0 2 0 4 0s10-2 14-10c4-4 4-8 2-12 6-8 4-16 2-20 2-2 4-4 4-6 2-2 2-6 0-10 0 0 0 0 0 0 2-2 6-4 8-4l2-2c4-4 8-8 10-10 2 0 4 0 8-2 0 0 8-4 10-4 0-2 4-2 4-4 4 0 8-2 12-2 4-4 6-8 8-12 0 0 0-2 2-2 0 0 0-2 0-2s2 2 6 2c4 0 12-2 14-4 0 0 2 0 2 0 2 0 10 0 16-6 2-2 4-4 4-8 2-2 2-4 4-4 0-2 0-4 2-6 0 0 2-2 2-2s0 0 2 0c2-2 4-4 4-6 8-6 6-16 0-22-6-10-10-12-14-12zM552 730.667l6-4-8 8z" />
<glyph unicode="&#xe006;" glyph-name="uniE006" d="M274-33.332c-4 0-8 0-10 4-6 6-4 14 0 18 0 0 128 108 256 214 110 90 126 132 140 162 0 4 4 8 4 12 10 24 16 298 20 464 0 6 6 12 12 12 8 0 14-6 14-12-2-74-8-442-22-474-2-4-4-8-6-12-12-32-32-76-146-172-128-106-256-212-256-212 0-4-2-4-6-4zM122 40.668c-2 0-6 0-10 4-4 6-4 14 2 18 0 0 128 108 256 214 108 92 126 132 138 162 2 4 4 8 6 12 10 24 16 298 18 464 0 8 6 12 14 12 6 0 12-6 12-12-2-74-6-442-22-474 0-4-4-8-4-12-14-32-32-76-146-170-128-108-256-214-256-214 0-4-4-4-8-4zM340 570.668c0 0 0 0 0 0l-112 10c-6 0-10 2-12 8-2 4-4 8 0 14l58 174c2 8 8 12 16 12h248c8 0 16-8 16-16 0-10-8-18-16-18h-238l-50-144 94-8c8-2 14-10 14-18-2-8-8-14-18-14zM496 378.668c-4 0-6 0-8 4l-196 108c-8 4-10 14-6 22l40 82c2 6 10 8 16 8l190-16c8-2 14-8 14-18-2-8-10-16-18-14l-180 16-28-60 184-100c6-4 10-14 6-22-4-6-8-10-14-10zM584-77.332c-2 0-6 0-8 2l-188 126c-8 4-10 16-6 22 6 8 16 8 22 4l180-118 168 136-100 60c0 0 0 0 0 0l-74 56c-8 6-10 16-4 24 4 8 14 8 22 4l74-56 118-72c4-2 6-8 6-12 0-6 0-12-6-14l-194-160c-2-2-6-2-10-2zM902 538.668l-206 12c-8 0-16 8-16 16 0 10 8 16 18 16l188-10 2 174-184 8c-8 0-16 8-16 18 0 8 8 14 18 14l198-10c10 0 16-6 16-16v-206c0-4-2-8-6-12-4-2-8-4-12-4zM1004 320.668c0 0 0 0-2 0l-318 58c-10 0-14 10-14 18 2 10 10 14 20 14l300-56v172l-88 12c-10 2-16 10-14 18 0 10 8 16 16 14l104-14c8-2 14-8 14-16v-204c0-4-4-8-6-12-4-2-8-4-12-4zM906 64.668c0 0-2 0-2 0l-128 14c-8 2-14 8-14 18 2 8 10 16 18 14l114-12 46 248c2 10 12 14 20 14 8-2 14-10 12-20l-50-264c-2-8-8-12-16-12zM364 244.668c-4 0-6 2-10 4l-240 218c-4 4-6 8-6 14 2 4 4 10 10 12l106 56c4 2 8 2 14 0l70-30c8-4 12-12 10-20-4-8-14-12-22-10l-66 28-80-42 226-202c6-6 6-16 0-22-4-4-8-6-12-6zM180 100.668c-4 0-8 2-12 6l-166 190c-2 4-4 8-4 12 2 6 4 10 8 12l170 108c8 6 18 4 22-4s2-18-6-22l-154-98 154-176c6-6 6-16-2-24-2-2-6-4-10-4z" />
<glyph unicode="&#xe007;" glyph-name="uniE007" d="M706 554.668l-8-30h-28l36 120h36l38-120h-30l-8 30zM738 574.668l-8 26c-2 8-4 16-6 24-2-8-4-18-6-24l-8-26zM620 350.668c-28 8-52 20-70 34l30 40c12-10 30-20 54-26zM506 462.668c0 2 0 4 0 4 0 12 2 22 4 34 4 14 6 24 8 36l50-6c-2-14-4-28-8-42-2-6-4-14-4-20v-2zM304 594.668l-28 16v36c0 0 20 26 30 36l36-34c-14-14-26-32-38-54zM518 598.668c-4 20-12 36-24 50l38 32c18-18 30-44 36-74zM446 676.668c-6 2-16 4-24 4-12 0-22 0-32-4l-14 50c14 4 32 6 48 4 12 0 22-2 32-4zM724 706.668c-68 0-124-56-124-124 0-110 98-132 120-290 0-6 10-6 10 0 18 158 118 182 118 290 0 68-56 124-124 124zM724 496.668c-44 0-78 34-78 78s34 80 78 80c44 0 80-36 80-80s-36-78-80-78zM240 34.668v36c-24 2-50 10-64 16l12 46c16-10 38-18 62-18 22 0 38 10 38 24s-12 24-40 34c-42 14-68 32-68 68 0 34 22 60 64 68v36h36v-34c26 0 42-6 56-12l-12-42c-10 4-28 12-56 12-24 0-32-10-32-22 0-10 14-20 46-32 46-14 64-36 64-70s-24-64-66-70v-38h-40zM844 158.668h-252c-10 0-18 8-18 18 0 8 8 16 18 16h252c20 0 34 4 44 14 10 12 10 26 10 26v634c0 34-46 36-50 36h-522c-2 0-50-2-50-34v-362c0-10-8-18-16-18-10 0-16 8-16 18v362c0 52 52 66 78 66h524c28 0 80-16 80-68v-634c0 0 2-28-18-50-14-16-36-24-64-24zM262-83.332c-144 0-260 118-260 260 0 146 118 262 260 262 146 0 262-118 262-262s-116-260-262-260zM262 406.668c-126 0-228-102-228-230 0-126 102-228 228-228 128 0 230 102 230 228 0 128-102 230-230 230z" />
<glyph unicode="&#xe008;" glyph-name="uniE008" d="M855.999-81.332h-336c-8 0-16 8-16 16 0 10 8 18 16 18h336c28 0 48 6 60 20 16 16 16 40 16 40v836c0 54-66 56-70 56h-694c-2 0-70-2-70-52v-480c0-8-8-16-16-16-10 0-14 6-14 14v480c0 66 66 82 100 84h694c36-2 102-20 102-86v-838c0 0 2-36-24-62-20-20-48-30-84-30zM507.999-81.332h-340c-34 0-102 18-102 84v480c0 8 8 16 18 16 8 0 16-8 16-16v-480c0-50 66-52 68-52h694c2 0 68 2 68 54v838c0 2 2 24-14 40-14 14-32 22-60 22h-336c-8 0-16 8-16 16 0 10 8 16 16 16h336c36 0 64-10 84-30 26-26 22-62 22-64v-836c0-68-64-86-100-86h-354zM605.999 146.668c-18 4-36 8-52 14l12 34c14-4 30-8 48-12zM503.999 182.668c-18 10-34 22-48 36l30 24c8-10 20-20 34-28zM429.999 272.668c-2 8-2 18-2 28s0 20 2 30l36-8c-2-8-2-16-2-24 0-6 0-14 2-20zM477.999 374.668l-36 6c2 16 4 34 4 48h36c0-16-2-34-4-54zM129.999 476.668l-32 18c8 16 18 32 28 46l28-22c-6-12-16-26-24-42zM439.999 478.668c-2 16-8 30-14 44l34 16c8-16 14-34 18-54zM187.999 554.668l-26 26c14 14 32 26 46 34l18-34c-14-4-26-14-38-26zM399.999 558.668c-10 10-24 18-40 24l16 34c16-8 34-18 48-32zM313.999 594.668c-4 2-10 2-16 2-4 0-8 0-12 0-6 0-12 0-18-2l-6 38c8 2 16 2 24 2 4 0 10 0 14-2 8 0 14-2 18-2zM701.999 616.668c-88 0-164-74-164-164 0-146 132-178 158-388 2-6 14-6 14 0 26 210 160 242 160 388-2 90-78 164-168 164zM701.999 336.668c-58 0-106 48-106 106 0 60 48 106 106 106 60 0 106-46 106-106 0-58-46-106-106-106zM677.999 414.668l-12-40h-36l48 160h48l50-160h-38l-14 40zM719.999 442.668l-10 36c-4 8-6 20-8 30-4-10-6-22-8-30l-10-36z" />
<glyph unicode="&#xe009;" glyph-name="uniE009" d="M174 324.668c0-10-6-22-12-28l-136-114c-6-6-14-2-14 8v548c0 8 6 20 14 26l136 112c6 6 12 4 12-6zM350 190.668c0-10-6-12-14-8l-136 114c-6 6-12 18-12 26v550c0 8 6 10 12 6l136-112c8-8 14-18 14-28zM524 324.668c0-10-6-22-14-28l-134-114c-8-6-14-2-14 8v548c0 8 6 20 14 26l134 112c8 6 14 4 14-6zM622 238.668l-72 58c-6 6-12 18-12 26v550c0 8 4 10 12 6l136-112c6-8 12-18 12-28v-72h14v108c0 10-6 22-14 28l-148 122c-8 6-14 12-16 12-2 2-6 2-6 0-2 0-10-6-16-12l-144-120c-6-6-18-6-24 0l-144 120c-6 6-14 12-16 12-2 2-4 2-6 0-2 0-10-6-16-12l-150-124c-6-6-12-18-12-28v-640c0-8 6-10 12-6l156 130c6 6 18 6 26 0l142-120c8-6 14-10 16-12s6-2 6 0c2 2 10 8 16 12l144 120c6 6 18 6 24 0l78-66zM1024-27.332v640c0 44-32 58-50 58h-306c-30 0-44-32-46-46 0-2-2-652-2-652 0-46 34-58 48-58h290c26 0 44 8 54 20 12 14 12 32 12 38zM820-29.332c-22 0-40 16-40 38s18 40 40 40c22 0 40-18 40-40s-18-38-40-38zM986 94.668h-334v524c0 4 6 12 16 12h308c6 0 10 0 10-18z" />
<glyph unicode="&#xe00a;" glyph-name="uniE00A" d="M439.999 246.668c0 0 100-96 158-18 0 0 20 28 26 58 0 0 4 28 32 40 0 0 0-40 38-60 2-2 6-2 8-2 0 0 0 2-4 6-6 4-8 2-10 4-8 8-16 20-16 28l24-12c0 0 16-8 18-32 0 0 2-18 10-36 0 0-60 10-100-54l-4 8c0 0-4-22-18-28 0 0 0 14-10 16 0 0-4-22-20-30 0 0 4 14-6 20 0 0-16-30-46-26 0 0 6 10 4 26 0 0-32-26-58-14 0 0 12 10 14 30 0 0-36-16-66 34 0 0 8-10 38 4-2 0-18 20-12 38zM517.999 716.668c0 0 36-10 2-72 0 0-16-50 12-74 0 0 4-6 6-12 0 0-36-10-18-78 0 0-22 8-30 26 0 0 6 2 10 14 0 0-20-6-34 14l18 10c0 0-16 2-30 26l20 8c0 0-20 4-28 28h22c0 0-16 32-10 50 0 0 14-14 24-16 0 0 12 16 0 34 0 0-8 14 4 32 0 0 0-4 12-6 0 0 12-2 18-30l2 4c0 0-10 24 0 42zM789.999 310.668h22c0 0 110 8 118 150 0 0 4 84-54 128-6 4-14 10-24 14s-30 10-48 0c-6-4-14-12-16-18-4-6-8-24 18-48l10 12c0 0-18 14-10 26 6 14 18 12 18 12 14 0 64-8 84-104 0 0 12-76-48-128 0 0 12 34-24 98 0 0-32 52 22 110l-16 12c0 0-68-68-20-134 0 0 36-52 18-82-4-6-14-16-22-16-10-2-34-6-34-6zM869.999 600.668c0 0 28 32 114 34 0 0 2-24-44-34 0 0 0-8 42-2 0 0-18-36-66-14 0 0-18 10-34 4zM691.999 766.668c0 0 16-8 14-40l70-32c0 0 10 20 40 28 0 0-2 4-22 4 0 0-2 6-14 8 0 0-4-4 0-16 0 0-10-6-14-8 0 0-2 8-6 14 0 0 14 2 16 14 0 0-6-2-10 0 0 0 10 12-4 24 0 0-10-6-12-20 0 0-8 6-12 8 0 0-4-6 0-20 0 0-4-6-12-6 0 0-8 4-10 14h6c0 0 6 2 8 6 0 0-6 4-12 4v4h2c-2 0 0 18-28 14zM897.999 90.668c-4 8-6 16-6 16l24-2c-22 2-20 40-20 40-4 32 16 52 16 52-60 2-74 42-74 42-26 30-32 98-32 98s0 6-2 10c-2 4-4 6-10 14-8 10-38 32-42 34-16 14-24 30-24 30-12-14-26-16-26-16l-2 6c62 32 42 92 42 92 2 10 14 26 14 26 46 52 22 134 22 134 14 18-2 22-2 22-14 2-16-4-16-4h-2l-2 4-40 14c-12 10-20 6-20 6 0-6 0-10 0-10 2-4 6-4 6-4 16 4 22-8 22-8l-2-2c-4 4-8 4-8 4-10 4-10-2-10-2-4-6-6 2-6 2v4c-12 4-10 20-10 20-18 0-38-6-38-6-6 0-4-6-4-6l4-10-4-10c-8-18 10-20 10-20l26-2c20-6 6-18 6-18-2-22-14-16-14-16-16 14-26 2-26 2-6-10 6-10 6-10 26-4 8-22 8-22-6-14-24-10-24-10-42 8-50-12-50-12-14-14-18-58-18-58-8 26 6 56 6 56-38-10-30-82-30-82-14 40 0 60 0 60-36-2-28-52-28-52l10-32-32-12c-30-14-46 2-46 2-46 50-104 10-104 10 26-22 58-14 58-14-12-12-44-24-44-24 54-24 70-2 70-2 6-22-8-32-8-32 20-6 48 16 48 16-2-12-14-20-14-20 20-2 44 22 44 22 0-12-8-22-8-22 26 4 42 26 42 26 0-14-8-24-8-24 16 2 26 12 26 12-26 24-18 40-18 40 6-36 36-42 36-42 24 2 42 40 42 40 22 38 44 32 44 32-28-8-32-26-32-26-14-40-30-44-30-44 4-16 38-28 38-28 8-4 20-12 26-16 54-32 54-84 54-84 6-52 46-68 46-68 80-32 68-90 68-90-10-86-64-114-64-114v0c14-6 26-2 26-2 4-14-2-24-2-24 44 4 70 50 70 50 10-16 26-18 26-18-10 20-4 58-4 58l16-12-6 20-4 12c6-6 20-12 20-12 0 2-2 8-6 16zM707.999 682.668c0 0 2 2 4-2v0-2c0 0-2 0-6-2 0 0-2 0-4 4zM639.999 406.668l-16-6-6 2h2l6 2c20 10 32 42 32 42 16 32 40 34 40 34l2-2-4-2c-24-8-30-34-30-34-2-32-26-36-26-36zM663.999 406.668l-4 4c24 8 32 32 32 32 12 42 36 42 36 42l-4-4c-18-6-22-34-22-34-4-36-38-40-38-40zM659.999 328.668c0 0 22 10 34-16l10-20c0 0 6-10 6-14 0 0-4 12-22 18 0 0-28 12-28 32zM705.999 722.668v-4l56-28 8 4zM613.999 698.668c0 0-4-46 38-48 0 0 6 6 32-10l-4-6c0 0-8 10-28 8 0 0-26-8-42 8 0-2-26 24 4 48zM341.999-83.332c-6 0-8 0-12 4 0 0-2 0-2 0s-2-2-4-2c-12-2-18-4-24 2s-10 16-6 24c0 0 0 2-2 2-2 2-2 6-2 12 0 4-2 14-4 18 0 0 0 0 0 2h-4c-14 0-20 0-26 2-2 0-4 0-6 2-4-2-8-6-14-6-4 0-6 2-10 4-2-2-4-2-4-4-6-2-14-4-24 6-8 4-16 10-18 12v0c-2 0-4 2-6 4-2 4-4 6-4 10 0 2-2 4-4 8 0 0-2 6-4 14 0 0 0 0 0 0-8 2-12 6-26 28-4 6-4 14 0 18 6 6 14 6 20 4 2 0 4 0 6-2 2 2 4 2 6 4s4 6 6 8c0 0 2 2 4 4s6 4 8 6c-2 0-2 0-6 0-4 4-8 8-8 12-2 2-6 22 6 30 6 2 12 6 16 8 0 6 0 14 4 18 0 2 2 4 2 6 2 4 4 8 8 12 2 4 6 10 14 10 0 4 0 8 0 12-2 2-6 2-8 4-16 6-16 6-20 10 0 0-18 18-10 34 2 2 2 4 4 4 2 2 2 4 2 4 2 6 4 10 6 10 2 2 2 4 4 6 0 0-2 2-2 2s-2 0-4 2c-2-2-6-2-10-2s-14 2-16 4c-14 2-16 12-16 16s0 8 2 12c0 0 0 4 0 4 0 2 0 4 0 4-2 2-4 4-6 6-2 4-14 28-16 38-2 4-4 12-6 14 0 0 0 0 0 0-18-2-24-2-30 0-10 6-12 18-12 26v4c0 4-2 10-4 14 0 0-12 24-4 36 0 4 4 6 6 6 0 0 0 2 0 2-2 2-2 6-2 10 2 4 4 6 6 8-2 12-2 18 4 24 0 0 0 0 2 2-20 8-24 12-24 22s16 30 16 30c4 2 4 2 6 4 0 0 0 2 2 2 2 2 2 4 2 6 0 0 0 2 0 2s2 2 4 6c0 2 4 8 4 10 0 0 0 4 0 4 0 6 0 12 0 16 2 14 10 18 18 20 4 2 10 2 14 2v0c2 0 2 0 2 0 2 4 4 8 8 12 4 2 6 4 10 6 0 0 0 0 0 0 0 2-2 4-4 4-8 6-8 14-6 18-2 2-4 6-2 12 2 8 6 12 12 14v2c12 8 18 12 22 14 0 2 0 6 4 10 0 2 2 6 4 6-2 2-4 2-4 4-4 2-8 10-4 20 0 4 0 8 4 14 2 4 4 6 6 8 4 4 8 4 12 6 0 0 0 0 2 0 0 2 4 4 4 4 0 2 0 4 0 8 0 0 2 2 2 4 2 2 2 6 2 8 0 10 0 16 4 20 4 6 6 8 10 10 4 4 6 10 14 14 4 0 8 2 10 2 8 6 16 8 18 8 0 0 2 0 2 0 0 2 0 2 0 2v2c0 4 2 8 2 10s0 4 0 4c0 26 2 30 4 32 4 8 10 10 14 10s10 0 12 0c2 0 2 0 2 0s2 0 4 0c2 0 4 2 6 2s2 0 2 0c6 4 16 6 24 6 22 4 28-6 28-16 0-2 0-4 0-4s0-2 0-2c4-2 8-2 10-4l4-2c0 0 0 0 2 0s2 0 2 0c0 4 0 4 0 8 2 8 10 16 24 16 2 0 4 0 8 0h2c8 0 14-6 16-10 0 0 0 0 0 0v0c4-2 14-8 12-24 0 0 0 0 0 0 0-4 0-8-2-14 0 0 0-2 0-4 4 0 6-2 8-2l2-2c4-2 12-6 12-16 2-4 2-6 2-8 0-6-2-8-2-12 0-2 0-4 0-6 0 0 0 0 0 0 0-4 0-18 0-22 0-2 0-6 0-6 0-4-2-8-4-10 8-8 4-18 0-20 0-2-2-2-4-6 0 0 0 0 0-2 0 0 0-2-2-2 0 0 0 0 0 0 0-2 0-4 0-6 4-4 8-12 8-18 0-10-8-16-16-16s-14 6-16 14c0 2-2 2-2 2-2 2-4 6-4 6 0 2-2 4-2 4s-2 0-2 2c-6 4-6 12-6 16 0 2 2 6 4 8-4 4-4 10 2 20 0 0 0 0 0 0 0 4 0 6 0 8 2 6 6 12 8 14 0 4 0 10 0 12 0 0 0 2 0 2 0 2-2 4-2 10 0 2 2 6 2 8-4 2-10 6-12 8-6 6-6 12-6 16v2c0 6 0 12 2 16 2-2 0-4-2-6-4-4-12-8-22-12-10-2-16 0-22 4l-6 2c-6 2-12 4-16 8s-8 6-10 14c0 0 0 0-2 2-4-2-6-4-10-4-2 0-4 0-6-2-4-2-8-2-12-2 0-2 0-6 0-8 0-4 0-6 0-12 0-2-2-4-2-6v-2c0-4-2-8-2-8 0-8-4-14-10-20-4-2-10-2-12-2s-4-2-4-2c-2 0-2 0-2 0-8-6-12-8-16-8-2 0-2-4-4-4-2-4-4-4-8-6 0 0 0 0 0 0s0 0 0-2c0-8 0-14-4-18 0-2 0-2 0-2 0-2 0-2 0-4 0 0 0-2 0-2 0-8-4-14-14-20-2-2-4-2-4-2-4-4-6-4-10-6 4-2 6-8 8-16 2-6-2-14-4-18-2-2-2-4-4-6 0 0 0-2-2-2 0-2 0-2 0-4-2-8-6-12-34-30 0 0 2-2 2-4 2 0 6-4 8-6 8-8 4-18 4-22v-2c0-8-4-12-10-16 0 0-2 0-2-2-2-2-6-4-10-6-2-2-2-8-6-12-8-8-20-8-24-8h-2c0 0-2 0-2 0 0-2 0-4 0-6s0-6 0-8c0-8-4-14-8-22 0-2 0-4 0-4-2-4-2-4-4-6 0-8-6-14-10-16l-2-2c0 0-2 0-2-2 4-2 6-2 8-2 10-6 14-8 16-8 2-2 8-6 8-28 0-6-4-14-10-20-4 0-6-2-8-2 0-2 0-2 0-4 4-6 2-16-2-22-2-2-4-2-4-4-2-2-4-4-6-6 0-2 2-2 2-4 4-8 6-20 6-26v-2c2 0 4 0 4 2 4 0 8 0 8 0 12 0 22-14 24-18s6-16 8-22c2-4 10-20 14-28 2 0 4-2 8-4 4-6 4-14 4-20 0 0 0-2 0-4 0 0 0 0 0 0 2 0 6 2 8 2 8 2 12-4 20-10 2 0 2 0 2-2 6-4 18-14 22-20 4-12-4-20-8-24l-2-2c0-2-4-6-4-8 0 0-2 0-2-2-2-4-2-6-4-8 2-2 6-2 10-4 24-8 24-10 28-14 4-8 4-12 0-24 0-2 0-4 0-6 0 0 0-2 0-2 0-6 0-12 0-12 0-10-8-18-14-20-2 0-6-2-10-2-2-2-2-6-4-10 0-2 0-2 0-4 0 0 0-2 0-4 0-6-2-10-12-16 2-2 4-4 4-4 2-2 8-10 2-22 2-2 2-2 2-6 0-8-4-12-26-28 0 0 0 0 0-2s-2-6-6-8c4-4 6-12 6-20 0-2-2-2-2-4 2-2 8-8 8-16 0 0 2 0 2 0 0-2 4-4 6-4s2-2 2-2c6 2 10 6 16 2 2 0 4-2 4-2 2 2 4 4 8 6 8 2 16-2 20-4 0 0 0-2 0-2 4 0 14 0 18 0 2 0 4 0 4 0 10 0 20-6 26-12 6-4 6-14 10-36 0 0 0-2 0-4 0 0 2-4 4-6 0 0 0 0 0-2 6 0 10-2 14-2s6 2 10 2c4 0 8-2 12-4 2 2 4 6 4 6 2 2 2 4 2 6 2 2 8 10 28 6 4-2 8-2 10-6 2 6 8 12 12 14s6 2 10 2c0 0 2 2 2 2s0 4 0 4c0 8-2 18 10 24 0 0 2 0 2 0 6 0 12-2 14-4 0 8 4 14 8 16 2 2 6 6 10 8 2 0 2 2 4 2 4 2 10 2 26 0 2 0 6-2 8-4 12 8 16 6 26 4 2 0 4 2 8 2 6 2 18-6 24-6 0 0 4 0 6 0 8 0 16-6 20-14 0-2 2-6 4-12 2-2 6-2 10-6 10-2 14-2 18-4 6-2 10-6 14-10 2 0 4-2 8-2 0 4 0 6 0 10 0 2 0 4-2 6 0 6 0 10 0 14 0 2 0 4 0 8 0 8 0 16 0 20 0 2-2 4-2 6l4 4c-2 6-2 14 0 20 2 4 4 12 12 18 0 0 0 0 2 0-4 2-8 6-10 8-4 2-6 8-6 12 0 6 2 14 8 20 2 2 4 4 8 4 0 2 0 4 0 4 0 8 6 16 14 18 10 0 18-6 18-14 0-2 2-22 2-22 0-6 0-10-2-12 0 0-2-2-2-2 2-2 4-6 4-10s2-14-6-20c0 0 0-2 0-2-4-4-8-8-12-10 0 0 0-2 0-2 2-4 6-12 4-18 0-4 0-12 0-18 0-4 0-8 0-8 0-4 0-6 2-10 0-4 2-8 2-10 0-8 0-18 0-22s0-4 0-8c0-6 0-14-8-18-8-8-16-10-24-4-2 2-4 2-6 6-2 2-2 2-2 2s0 0-2 0c-6 0-12 0-18 4-4 2-4 6-8 10 0 0 0 0 0 2-4 0-6 0-8 2-4 0-8 0-10 0-6 2-10 6-14 8s-6 4-6 8c-4 8-6 12-8 16-4 0-6 2-10 4-2 0-4 0-6 2-8-6-14-2-24 2-2-2-4-4-6-4s-4-2-6-2c-8-2-16 2-18 6-4 0-4 0-6 0 2-8 2-16-8-22 0 0-12-8-22-10 0-2-2-4-4-6l-4-4c-6-8-10-14-18-16 4-6 2-12 0-16-2-2-6-8-16-6-4 0-6 0-8 2-2 0-2 0-4 2-4 0-10-2-16 4-2 0-2 2-4 4-4-8-8-12-12-14-2 0-18-4-28 0-4-4-8-4-12-4zM307.999 926.668c6-2 10-6 12-12-2 8-8 12-12 12z" />
<glyph unicode="&#xe00b;" glyph-name="uniE00B" d="M996.666 2.668l-176 504-12 36-2 20-2 18-14 6-4 26-14 4-4 10-22 2-2 16 10 4 10 12c0 0 6 0 16 2 4-4 18 4 18 4s8 0 28 4c4 16 0 30 0 30l-28 4v8l-18 2-8 2c0 0-4 0-6 10 0 8-18-2-18-2l-44 2c0 0-10 4-16 4s-40-18-40-18c0 0 0-26 0-36s36-16 36-16v-12h16v-18h-6v-18h-14l-4-20-10-12-12-28-126-260-108-214h32l30 66h20l186 392h18l36-556 80 2-30 448 56-162 92-274 12-2 4-12h48zM800.666 18.668h-42l-32 488h28l12-26zM314.666-83.332c-6 0-8 0-12 4 0 0-2 0-2 0s-2-2-4-2c-12-2-18-4-24 2-8 6-10 16-8 24 0 0 0 2 0 2-2 2-2 6-4 12 0 4 0 14-2 18 0 0 0 0 0 2h-4c-14 0-22 0-26 2-2 0-2 0-6 2-4-2-8-6-12-6s-8 2-12 4c-2-2-2-2-4-4-4-2-14-4-24 6-6 2-12 8-16 12v0c-2 0-4 2-6 4-2 4-4 6-4 10-2 0-4 4-8 8 0 0-2 6-4 14 0 0 0 0 0 0-8 0-12 4-26 26-4 6-4 14 2 20 4 4 12 6 18 4 2-2 4-2 6-4 2 2 4 4 8 4 0 2 2 6 4 8 0 0 2 2 4 2 2 4 6 4 8 8-2 0-2 0-4 0-4 2-8 6-8 10-2 4-8 24 6 32 4 2 12 6 14 8 0 6 0 14 6 18 0 2 2 4 2 6 2 4 4 8 6 10 4 4 8 12 16 12 0 2 0 6 0 12-2 2-6 2-8 4-16 8-16 8-20 12 0 0-16 18-8 32 2 4 4 4 4 6 2 0 2 2 2 2 2 6 4 10 6 12v0c2 2 2 4 2 4s0 2 0 2c-2 2-4 2-4 2-4 0-6-2-10-2-6 0-14 2-18 4-14 2-16 12-16 16s2 8 2 12c0 2 2 4 2 6 0 0 0 2 0 4-2 0-6 2-6 6-4 4-16 28-18 36-2 4-4 12-6 14 0 0 0 0 0 0-18-4-24-4-30 0-10 4-10 18-12 26v4c0 4-2 10-2 12 0 0-14 24-6 36 2 4 4 8 6 8 0 0 0 2 0 2 0 2-2 6 0 10 0 4 2 6 4 8 0 12 0 18 4 22 2 2 2 2 4 4-20 8-26 10-26 20 0 12 18 32 18 32s2 2 4 4c0 0 0 0 0 0 2 4 2 4 4 8 0 0 0 0 0 0 0 2 0 4 2 6 0 4 4 10 4 12 0 0 0 2 0 4 0 6 0 10 0 16 2 14 10 18 18 20 4 2 10 2 14 2v0c2 0 2 0 4 0 0 4 2 8 6 12 4 2 6 2 10 6 0 0 2 0 2 0-2 0-4 4-6 4-8 6-8 14-6 18-2 2-2 6-2 10 2 10 6 14 12 16l2 2c12 6 18 10 22 14 0 2 0 6 2 10 2 2 4 4 4 6s0 2 0 2c-4 4-8 10-4 22 0 2 2 8 4 14 4 2 6 6 8 8s6 4 10 6c2 0 2 0 4 0 0 2 2 2 2 2 0 4 0 6 2 8 0 2 2 4 2 6s0 4 0 8c0 10 2 14 6 20 2 6 6 8 10 10 2 4 6 10 14 12 4 2 8 2 10 4 8 6 14 8 18 8 0 0 2 0 2 0s0 0 0 2v2c0 2 0 6 0 10 0 0 2 4 2 4-2 24 2 28 2 32 4 6 12 8 16 10 2 0 10 0 12 0 0 0 2 0 2 0s2 0 2 0c4 0 4 0 8 0 0 0 0 0 2 0 6 6 16 8 24 8 16 0 24-12 24-18 0-2 0-4 0-6 0 0 0-2 0-2 2 0 6-2 8-4h4c2 0 2-2 2-2 2 0 2 0 4 2 0 2 0 4 0 6 0 8 8 16 22 16 2 0 6 0 8 0h2c10 0 14-6 16-8 0 0 2-2 2-2 4 0 14-8 12-22 0 0 0-2 0-2 0-4 0-8-2-12 0-2 0-4 0-4 2-2 4-2 6-4h2c4-2 12-6 12-18 2-2 2-6 2-8 0-6-2-8-2-10s0-6 0-8c0 0 0 0 0 2 0-4 0-18 0-22 0-2 0-6 0-6 0-4-2-8-4-12 8-8 4-16 2-20-2 0-4-2-4-4s0-2 0-4c0 0 0 0 0 0s0-2 0-2 0-2 0-4c4-6 6-12 6-20 0-2 0-2 0-2 0-4 0-8 0-10 4-2 6-4 8-8 8-6 4-16 4-18 2-6 2-10 2-12 0 0 0-4-2-6 0 0 2-2 2-2s0 0 2 0 4 0 6-2c14-6 14-16 12-20 0-2 0-4-2-4 2 0 4 0 4-2 8-2 16-6 18-16 2 0 4-2 4-4 0 0 2 0 2 0 2 0 4 0 4-2 4 0 12-2 18-10 2-4 2-8 0-14 0 0 0-2 0-2s2 0 2-2c6-10 4-18 2-22 2-4 4-6 4-8 2-4 2-8 0-12 0-2 2-2 2-4 4-2 6-2 8-4l4-4c6-6 10-10 12-12 2 0 6 0 10-2 2 0 12-6 14-8 6-4 8-10 8-14 0 0 0-2 0-2 0-2 0-6 0-8-2-8-12-12-20-10-4 2-8 4-10 10-2 0-4 0-6 0-8 0-8 0-30 24 0 0 0 0-2 0 0 0-4 0-4 0-8 4-10 8-16 26l-2 2c0 2 0 4 0 8-2 0-4 2-4 4-6 6-4 16 0 22 0 2-4 8-4 12 0 0 0 0 0 0-4-2-10-2-14-2-2 2-4 2-4 4 0 0 0 0-2 0-8-2-14 2-18 10 0 0-4 10-6 14-8 14-6 20-6 22 0 0 0 0 0 2 0 0 0 0-2 0-4 2-8 6-8 8-4 0-6 4-6 4-4 2-8 6-8 10 0 2 0 6 4 10-2 2-4 4-4 8-2 2-4 6 0 12-4 2-4 4-6 6-4 6-2 14-2 18 0 0 0 0 0 2 0 0 0 0 0 4 0 0 0 2 0 2 0 2 0 2-2 2 0 4-2 6-4 8 0 0 0 2 0 2-2 0-4 0-4 2-4 8-4 14-4 16 0 4 0 8 2 10-2 4-2 10 2 18 0 0 0 2 0 2 0 2 0 6 0 6 2 8 8 14 10 16 0 4 0 10 0 12 0 0 0 0 0 0-2 4-2 6-2 12 0 2 0 6 0 8-4 2-10 6-12 8-6 6-6 12-6 18v0c0 8 0 12 2 18-2-4-2-4-6-6-4-4-10-8-22-12-10-2-16 0-20 2l-6 2c-6 4-12 6-16 8-6 4-10 6-10 14 0 2 0 2-2 4-4-4-8-4-12-6 0 0-2 0-4-2-6 0-10 0-12 0 0-4 0-8 0-8 0-4-2-8-2-14 0-2 0-2 0-6v-2c0-4-2-6-2-8 0-8-4-14-12-18-4-4-8-4-12-4 0 0-4 0-4 0s0 0-2-2c-6-6-12-6-14-6-2-2-2-4-4-6-4-2-6-4-8-4 0 0 0 0 0-2 0 0 0 0 0-2 0-6-2-14-4-18 0 0 0 0-2-2 0-2 0-2 0-2 0-2 0-2 0-2 0-8-4-14-12-22-2 0-4-2-6-2-2-2-6-4-10-6 4-2 8-6 8-16 2-6-2-12-6-16 0-2 0-6-4-8 0 0 0 0 0-2 0 0 0-2 0-4-2-8-6-12-32-30 0 0 0-2 0-2 4-2 6-4 8-6 8-8 6-18 6-24v-2c0-6-4-12-12-16 0 0-2 0-2-2-2 0-6-2-10-4 0-4-2-10-6-12-8-10-18-8-24-8h-2c0 0-2 0-2 0 0-2 0-4 0-6s0-4 0-8c0-8-4-14-8-22 0-2 0-4 0-4-2-2-2-4-4-6 0-8-8-14-10-16l-2-2c0 0-2 0-2-2 4-2 6-2 6-2 12-6 16-6 18-8s8-6 8-28c0-10-6-16-10-20-4 0-6-2-10-4 0 0 0-2 0-4 4-6 2-14-2-20-2-2-4-4-4-4-2-4-2-6-6-8 4 2 4 0 4 0 6-10 6-20 6-26v-2c4 0 4 0 6 0 6 2 8 2 10 2 12 0 20-12 24-16 2-6 6-18 8-22s10-20 12-26c4-2 6-2 8-6 6-6 6-14 6-18 0-2 0-2 0-4 0 0 0-2 0-2 2 2 4 4 8 4 8 0 12-4 20-10 2-2 2-2 2-2 6-4 18-14 20-20 4-12-4-22-8-26h-2c0-4-4-6-4-8-2-2-2-2-2-2-2-4-4-8-4-8 2-2 4-4 8-4 24-10 26-10 30-16s2-12 0-22c0-4-2-4-2-6s0-2 0-4c0-4 2-10 2-12 0-10-10-16-16-18 0 0-2 0-2-2 0 0-2-2-6-2-2-2-4-6-6-10 0 0 0 0 0-2s0-4 0-4c0-4 0-10-10-18 2 0 2-2 4-4 2 0 8-10 2-20 0-2 0-4 0-6 0-10-4-14-24-28 0-2 0-2 0-2-2-4-2-8-6-8 2-4 6-12 4-20 0-2 0-4-2-4 4-4 10-8 10-16 0 0 0-2 0-2 2 0 6-4 6-4 2 0 2 0 4 0 4 2 10 4 16 0 2 0 2 0 2 0 4 0 4 4 8 4 10 4 16 0 20-4 0 0 2 0 2 0 4 0 12 0 16 0s4 0 6 0c10 0 18-8 24-12 6-6 8-16 10-36 0-2 0-2 0-4 2-2 2-4 4-6 0 0 2-2 2-2 4 0 10-2 12-4 2 2 6 4 10 4 6 0 10-2 14-4 0 2 4 4 4 6s2 4 2 4c0 4 8 12 26 8 4 0 8-4 10-8 4 8 8 14 14 16 4 2 6 2 10 2 0 0 2 0 2 0 0 2 0 4 0 6 0 8-2 18 10 22 0 0 0 0 0 0 8 4 12 0 16-2 0 8 4 14 6 16s6 4 12 8c2 0 2 0 2 0 6 4 12 4 26 0 4 0 6 0 10-2 12 6 14 6 24 2 4 2 6 4 8 4 6 0 20-6 24-8 2 0 6 0 8 0 8 0 16-4 18-12 2-2 2-8 6-12 2-2 6-4 8-8 10 0 16 0 20-2 6-2 8-6 12-12 2 0 6 0 10 0 0 4 0 6 0 8s0 6-2 8c0 6-2 10-2 12 0 4 0 6 0 10 0 6 0 16 0 20 0 0 0 4-2 6l-2 2c-2 6-2 14 0 20 2 4 4 12 12 18 0 0 0 0 2 0-2 2-8 6-10 8-4 2-6 8-6 12 0 6 2 14 8 20 2 2 6 4 8 4 0 2 0 4 0 4 0 8 4 12 12 22 4 4 10 8 16 8 0 0 2 2 2 4 2 0 4 2 4 2 6 8 16 8 22 4 6-6 8-16 4-22-2-4-6-6-10-10 0 0 0 0 0 0-2-4-8-8-16-10 0 0-2 0-2 0 0-6 0-14 0-14 0-6 0-10-2-14 0 0-2 0-2 0 2-4 4-6 4-10s2-16-6-22c0 0 0 0 0 0-4-4-8-8-10-12 0 0 0 0 0 0 0-4 4-12 2-20 0-4 0-10 0-16 0-4 0-8 0-10s0-6 2-10c0-2 2-6 2-8 0-6 0-18 0-22 0-2 0-4 0-6 0-8 0-16-6-20-10-8-18-8-26-4-2 2-4 4-6 6 0 2 0 2-2 4 0 0 0 0-2 0-6-2-12-2-18 2-4 2-4 6-8 10 0 0 0 2 0 2-2 0-6 0-8 2-4 0-8 2-10 2-6 0-10 4-14 6-2 2-6 4-6 8-4 8-6 14-8 16-4 0-6 2-10 2-2 0-4 2-6 4-8-6-14-4-24 0-2 0-4-2-6-2 6-8 4-10 2-10-8-2-16 4-20 6-2 0-4 0-4 0 0-6 0-16-8-20 0 0-12-6-22-10-2-2-2-4-4-6v-2c-6-6-10-14-18-14 4-6 2-14 0-18-2-2-8-6-16-6-4 0-6 2-10 2 0 0 0 0-2 2-4 0-10-2-16 4-2 2-2 2-4 4-6-8-8-10-12-12-2-2-18-6-28 0-6-4-8-4-12-4zM578.666 514.668c2-4 2-6 4-8 0 2-2 4-4 8zM280.666 920.668c6-2 10-6 12-12-2 8-8 10-12 12z" />
<glyph unicode="&#xe00c;" glyph-name="uniE00C" d="M230 90.667c-10 0-18 8-18 18v390c0 8 8 16 18 16 8 0 16-8 16-16v-392c0-8-8-16-16-16zM374 90.667c-10 0-16 8-16 18v390c0 8 6 16 16 16 8 0 16-8 16-16v-392c0-8-8-16-16-16zM518 84.667c-10 0-18 8-18 16v398c0 8 8 16 18 16 8 0 16-8 16-16v-398c0-10-8-16-16-16zM662 84.667c-10 0-16 8-16 16v398c0 8 6 16 16 16 8 0 16-8 16-16v-398c0-10-8-16-16-16zM806 84.667c-8 0-16 8-16 16v398c0 8 8 16 16 16 10 0 18-8 18-16v-398c-2-10-8-16-18-16zM936 84.667h-834c-10 0-18 8-18 16 0 10 8 18 18 18h834c8 0 16-8 16-18 0-8-8-16-16-16zM1006-13.333h-988c-10 0-16 8-16 16 0 10 6 16 16 16h990c8 0 16-6 16-16 0-8-8-16-18-16zM806 484.667h-576c-8 0-16 8-16 18 0 8 8 16 16 16h576c10 0 18-8 18-16 0-10-8-18-18-18zM722 574.667h-396c-10 0-18 8-18 18 0 8 8 16 18 16h396c8 0 16-8 16-16 0-10-8-18-16-18zM102 432.667c-6 0-12 2-14 8-4 8-2 18 6 22l418 276c8 4 18 2 22-6s2-18-6-22l-418-276c-2 0-6-2-8-2zM940 432.667c-4 0-6 2-10 2l-420 276c-6 6-8 16-4 22 4 8 14 8 22 6l418-276c8-6 8-16 6-22s-8-8-12-8z" />
<glyph unicode="&#xe00d;" glyph-name="uniE00D" d="M8 548.668c0-210 170-380 378-380 64 0 124 18 178 46l264-264c20-20 48-34 80-34 60 0 110 50 110 112 0 30-12 58-32 80l-264 262c28 54 44 114 44 178 0 208-170 378-380 378-208 0-378-168-378-378zM622 240.668c28 20 54 46 74 74l242-242c10-10 16-24 16-38 0-30-22-54-52-54-14 0-28 6-38 18zM84 548.668c0 168 134 302 302 302s304-134 304-302c0-168-136-304-304-304s-302 136-302 304z" />
<glyph unicode="&#xe00e;" glyph-name="uniE00E" d="M1024 402.667c0 6-4 12-8 14l-170 76 170 78c4 2 8 8 8 14s-4 10-8 14l-498 228c-4 2-8 2-12 0l-496-228c-4-2-8-6-8-14 0-6 4-10 8-14l170-76-170-76c-4-4-8-8-8-16 0-6 4-10 8-14l170-78-170-76c-4-2-8-8-8-14s4-12 8-14l496-226c2 0 4 0 6 0s6 0 6 0l496 226c4 2 8 8 8 14s-4 12-8 14l-168 76 168 78c6 2 10 8 10 14zM512 792.667l456-208-456-208-456 208zM968 220.667l-456-208-456 208 162 72 288-130c2-2 4-2 6-2s6 0 6 2l290 130zM512 194.667l-456 208 162 74 288-130c2-2 4-2 6-2s6 0 6 2l288 132 162-76z" />
<glyph unicode="&#xe00f;" glyph-name="uniE00F" d="M48 467.334c-30 24-46 54-46 82 0 72 88 128 246 154l4-32c-134-22-218-68-218-122 0-24 18-46 34-58zM48 325.334c-30 24-46 54-46 82h32c0-18 10-38 34-58zM698 325.334l-20 26c22 20 34 38 34 58h32c0-30-16-58-46-84zM244 393.334c-84 14-154 40-196 74l22 26c38-32 102-54 178-68zM406 383.334c-48 0-124 4-162 10-10 2-14 10-14 18 2 10 10 14 18 14 38-8 110-12 158-12 8 0 16-6 16-16 0-8-8-14-16-14zM94 623.334l-18 28c46 30 118 50 200 56l4-32c-80-6-146-24-186-52zM404 673.334c-42 4-84 4-124 2l-4 32c42 2 86 2 132-2zM486 663.334c-4 0-6 0-8 0-10 4-86 14-120 14-8 0-14 8-14 16s6 16 16 16c20-2 116-8 132-18 8-4 12-14 8-22-4-4-8-6-14-6zM372 243.334c-136 0-260 32-324 82l22 26c58-48 174-76 304-76 128 0 246 28 304 76l20-26c-66-50-190-82-326-82zM2 551.334h32v-148h-32zM48 325.334c-30 24-46 54-46 82h32c0-18 10-38 34-58zM698 325.334l-20 26c22 20 34 38 34 58h32c0-30-16-60-46-84zM48 187.334c-30 24-46 52-46 82h32c0-26 18-46 34-58zM698 187.334l-20 24c16 14 34 34 34 58h32c0-30-16-58-46-82zM504 253.334l-6 32c78 12 142 36 180 66l20-26c-44-32-112-60-194-72zM244 253.334c-84 12-154 40-196 72l22 26c38-30 102-54 178-66zM372 243.334c-44 0-88 4-128 10l4 32c80-14 170-14 250 0l6-32c-44-6-86-10-132-10zM372 103.334c-136 0-260 32-324 84l22 24c58-46 174-76 304-76 128 0 246 30 304 76l20-24c-66-54-190-84-326-84zM2 421.334h32v-156h-32zM728 247.334c-8 0-16 8-16 18v156c0 10 8 18 16 18 10 0 16-8 16-18v-156c0-12-6-18-16-18zM48 185.334c-30 24-46 52-46 82h32c0-24 18-46 34-58zM698 185.334l-20 26c16 12 34 32 34 58h32c0-30-16-58-46-84zM48 45.334c-30 24-46 54-46 82h32c0-24 18-44 34-58zM698 45.334l-20 26c16 12 34 34 34 58h32c0-30-16-60-46-84zM504 111.334l-6 32c78 14 142 36 180 68l20-26c-42-34-112-60-194-74zM244 111.334c-84 14-154 40-196 74l22 26c38-32 102-54 178-68zM372 101.334c-44 0-88 4-128 10l4 32c80-12 170-12 250 0l6-32c-44-6-86-10-132-10zM372-36.666c-136 0-260 32-324 82l22 26c58-48 174-76 304-76 128 0 246 28 304 76l20-26c-66-50-190-82-326-82zM2 281.334h32v-158h-32zM712 281.334h32v-158h-32zM1022 809.334c0 4-4 6-6 6l-292 92c-4 2-8 0-12-2-4-4-6-8-4-14l26-96c-256-92-232-414-232-416 0-6 4-10 12-12 0 0 0 0 0 0 6 0 10 4 12 8 84 216 212 254 252 260l30-104c2-6 6-8 12-10 4 0 10 2 12 6l190 270c0 4 2 8 0 12z" />
<glyph unicode="&#xe010;" glyph-name="uniE010" d="M580 258.667c0 0-12-30-4-36 8-8 42-16 30-4-10 10-10 16-8 26s10 30 2 26c-8-2-18-6-20-12zM546 236.667c0 0-16-4-10-14 4-8 22-22 24-14 2 6 10 24-14 28zM402 180.667c6 14 38 38 20 44-4 2-8 6-8 10-6-10-12-20-18-30-4-4-6-8-10-10 2-4 10-26 16-14zM722 286.667c-24 24-48 42-56 40-2-14-8-34-8-34l-14-34c-4-22 26-24 26-24s36-4 52 52zM760 250.667c2 0 2 0 2 0s-2 0-2 0zM1022 112.667c-2 8-10 14-20 12l-10-2c-24-6-52-12-84-18-30 190-196 334-396 334-38 0-72-4-108-14 6-10 14-20 18-30 30 8 60 12 90 12 184 0 336-134 364-308-14-4-26-8-38-12-2 72-58 160-76 164 8-8 32-72 32-72l-36 4c0 0-14 28-32 18-18-8-6-14-32-18-28-4-40 36-58 22s-28 4-34-14c-4-18 4-40 4-40h-36c-24-10-10-50-10-50s38-14 60 0c24 14 38 40 38 40l42-52c16-8 22 24 22 24-20 30 0 42 0 42l40-18 28-32-6-24-50-18c0 0 0-6-4-12-10-4-22-10-38-14-10 2-22 8-34 16 0 0-104 18-104-14 0-14-2-20-2-26-80-4-176 0-270 30-14 4-26 8-40 12 0 0 2 0 2 2 4 14-10 20-22 12-14-6-18 6-10 12 10 4 38 28 42 20 4-10 26-4 32-2 8 2 18 8 22-8 4-18 24-36 24-30s6 30 0 40c-4 12-10 20-10 20s32 0 42 20c8 18 8 28 10 36 0 2 2 6 0 10-48-42-116-54-174-28-2-10-8-20-12-28 0-10 6-26 4-32-2-10-4-16-2-22 0-4 2-6 4-10-16 4-32 6-48 10 4 32 12 66 22 96-6 4-10 8-16 12-4 2-8 6-12 10-16-36-26-76-30-114-32 2-58 6-76 6-8 0-12 0-14 0-10 2-18-4-18-14-2-8 4-16 14-18 4 0 8 0 16 0 40-4 134-10 240-42 74-26 152-34 222-34 120 0 220 26 254 44 44 26 182 54 250 68l10 4c10 0 16 10 14 18zM52 608.667c-4 4-12-2-10-6 94-164 24-266 102-368 48-64 140-76 202-26 64 46 78 138 30 202-76 104-194 64-324 198zM204 408.667l12 66c20-8 38-14 56-20l-22-112zM232 332.667l-102 16c0 20-2 40-4 60l62-12zM262 322.667l26 124c20-8 38-20 54-36l-28-166zM82 550.667c-2 4 4 10 6 6 38-40 74-60 110-74l-12-54-34 52-16-10 36-52-50 10c-2 36-14 76-40 122zM134 328.667l114-18 52-74-146 30c-12 20-18 40-20 62zM170 244.667l138-28c-46-20-104-10-138 28zM332 230.667l26 160c34-52 22-122-26-160z" />
<glyph unicode="&#xe011;" glyph-name="uniE011" d="M936 468.668c36 0 64 28 64 64s-28 64-64 64c-16 0-30-4-42-16l-214 154c8 10 14 24 14 38 0 36-28 64-64 64s-64-28-64-64c0-24 14-44 34-56l-90-250c0 0 0 0-2 0-6 0-12 0-16-2l-262 380c4 8 8 18 8 30 0 36-28 64-64 64s-64-28-64-64c0-12 4-24 10-34l-112-156 304-396-64-46c-12 14-30 22-48 22-36 0-64-28-64-64s28-64 64-64c22 0 42 12 54 32l416-176c0-4 0-8 0-14 0-36 28-64 64-64s64 28 64 64c0 8-2 16-4 22l164 146-154 228 100 104c8-8 20-10 32-10zM48 684.668l96 134c8-4 18-8 30-8s24 4 34 8l256-370c-10-12-18-28-18-46 0-6 0-14 4-20l-110-76zM914 154.668l-140-126c-12 8-26 16-42 16-20 0-36-10-48-22l-422 178c0 0 0 2 0 2 0 6 0 8 0 12l204 142c12-10 26-16 42-16 8 0 14 2 20 4l100-150 154 158zM634 244.668l-78 116c10 12 16 26 16 42 0 24-12 44-30 54l90 252c10 0 16 2 24 4l220-158c-2-8-4-16-4-24 0-10 4-22 8-32z" />
<glyph unicode="&#xe012;" glyph-name="uniE012" d="M510 932.668c-280 0-508-226-508-506s228-508 508-508c282 0 508 228 508 508s-226 506-508 506zM952 442.668h-196c-2 74-14 142-38 206 44 18 84 42 122 72 66-76 108-172 112-278zM492-15.332c-54 46-100 104-134 174 42 12 88 20 136 20v-194c0 0-2 0-2 0zM528 866.668c62-50 114-120 146-200-46-16-96-26-148-28v230c2 0 2-2 2-2zM584 862.668c90-16 172-58 234-118-34-28-72-50-112-66-30 70-72 132-122 184zM494 868.668v-228c-52 2-102 10-148 26 34 80 84 150 146 200 0 0 2 2 2 2zM314 676.668c-40 18-78 40-112 66 62 62 144 104 234 118-50-50-90-112-122-184zM334 636.668c50-18 104-28 160-30v-164h-196c2 68 14 134 36 194zM494 410.668v-198c-52-2-102-10-148-26-28 68-46 144-48 224zM438-9.332c-80 14-156 48-214 100 32 22 66 40 104 54 28-58 66-110 110-154zM528-15.332v194c46 0 92-8 136-20-34-68-80-128-134-174-2 0-2 0-2 0zM692 146.668c38-14 72-34 106-56-60-50-134-86-214-100 44 44 80 96 108 156zM676 186.668c-48 16-98 24-148 26v198h196c-4-80-20-156-48-224zM528 442.668v164c56 2 110 12 160 30 22-60 32-126 36-194h-196zM180 720.668c38-30 78-54 124-72-24-64-36-134-38-206h-196c2 106 44 202 110 278zM70 410.668h194c4-84 20-164 50-234-42-18-82-38-116-64-76 78-126 180-128 298zM822 112.668c-36 26-74 48-116 64 28 70 46 148 48 234h196c-2-118-52-220-128-298z" />
<glyph unicode="&#xe013;" glyph-name="uniE013" d="M1018 26.667c0 2-10 86-72 598v2l-2 14c0 28-68 30-68 30-14 0-64-6-70-26v-2c0 0 0-2 0-2l-2-16-16-190-136-116v120l-140-122v128l-154-164v428c0 8 8 22 16 26l136 114c8 6 14 2 14-8v-512l14 10v502c0 10 4 12 12 8l138-114c8-6 16-18 16-12v-364l12 12v372c0 10-6 22-14 28l-150 124c-6 6-14 12-16 14-2 0-6 0-8 0 0-2-8-8-14-14l-144-118c-6-6-18-6-26 0l-144 118c-6 6-14 12-16 14 0 0-4 0-6 0-2-2-10-8-16-14l-150-124c-6-6-12-18-12-26v-642c0-8 6-12 12-6l156 130c8 6 18 6 26 0l142-120c8-6 14-12 16-12 2-2 4-2 6 0v-78h398l8-6c42-20 84-30 126-30 72 0 118 28 122 30l8 6zM180 292.667c0-8-8-20-16-26l-138-114c-6-6-14-2-14 6v550c0 8 6 22 14 26l138 114c6 6 16 2 16-8zM346 158.667c0-8-4-12-10-6l-134 112c-6 8-10 18-10 28v550c0 8 4 12 10 6l134-112c6-6 10-18 10-28zM786 386.667l-28-344h-374v220l102 102v-118l142 124v-124l158 142zM876 638.667c14 0 26-4 32-6-8-2-18-2-28-2-14 0-26 0-36 4 8 0 18 4 32 4zM824 464.667l10 138c12-2 28-4 46-4 12 0 24 0 36 4 10-72 16-132 24-186-24-8-46-12-66-12-26 0-44 6-54 10zM890 12.667c-32 0-66 8-102 22l22 276c22-6 46-12 70-12 28 0 54 6 72 12 20-182 32-254 34-278-14-6-50-20-96-20z" />
<glyph unicode="&#xe014;" glyph-name="uniE014" d="M879.331 8.668v846c0 70-56 84-84 84h-564c-30 0-82-12-82-78v-860c0-64 52-84 82-84h558c28 0 48 8 66 24 26 28 24 68 24 68zM847.331 734.668v-398h-326v398zM175.331 734.668h320v-398h-320zM175.331-1.332v312h320v-358h-264c-2 0-56-2-56 46zM831.331-33.332c-8-12-22-14-42-14h-268v358h326v-304c0 0 0-22-16-40zM421.331 554.668h-80v74c0 8-6 14-12 14-8 0-14-8-14-14v-74h-76c-6 0-12-6-12-12 0-8 6-14 12-14h76v-82c0-8 6-12 14-12 6 0 12 6 12 12v82h80c8 0 14 6 14 14 0 6-6 12-14 12zM773.331 528.668h-170c-8 0-12 6-12 14 0 6 6 12 12 12h170c8 0 12-6 12-12 0-8-4-14-12-14zM773.331 144.668h-170c-8 0-12 6-12 14 0 6 6 12 12 12h170c8 0 12-6 12-12 0-8-4-14-12-14zM773.331 80.668h-170c-8 0-12 6-12 14 0 6 6 12 12 12h170c8 0 12-6 12-12 0-8-4-14-12-14zM355.331 128.668l52 50c4 6 4 14 0 18-6 6-14 6-18 0l-52-50-52 50c-4 6-12 6-16 0-6-4-6-12 0-18l50-50-50-52c-6-4-6-12 0-18 0-2 2-4 6-4s8 2 10 4l50 52 52-52c2-2 6-4 10-4 2 0 6 2 8 4 6 6 6 14 0 18z" />
<glyph unicode="&#xe015;" glyph-name="uniE015" d="M872.665 914.668c0 0 0 2 0 2 0 2 0 2 0 2 0 2 0 4 0 4s0 2 0 2-2 2-2 2c0 2-2 2-2 4 0 0 0 0-2 0 0 0 0 0 0 2 0 0-2 0-2 0s-2 0-2 0c0 0-2 0-2 2-2 0-2 0-2 0-2 0-4 0-4 0s-2 0-2-2c-2 0-2 0-2 0-2 0-2-2-2-2s-2 0-2-2-148-184-466-328c-162-72-262-194-270-332-8-118 52-228 160-296 2-2 4-2 4-2 2-2 4-4 4-4 58-36 120-52 180-52 56 0 108 14 158 44 118 72 182 214 174 392-16 348 80 560 82 562 0 0 0 0 0 2zM520.665 636.668l42-180-106-170-74 280c4 2 6 4 10 6 46 20 90 42 128 64zM724.665 136.668l-392-100 124 200 302 62c-4-60-14-116-34-162zM290.665-5.332c0 0 0 2 0 2l2-2c0 0-2 0-2 0zM758.665 348.668c0-6 0-12 0-20l-280-56 108 170 170 40c-2-44-2-88 2-134zM356.665 552.668l78-300-124-194-80 402c34 36 76 66 126 92zM142.665 266.668c4 58 26 116 66 164l82-404-30-8v-2c-82 64-126 156-118 250zM598.665-13.332c-80-48-178-52-270-10l-6 30 386 98c-26-52-64-92-110-118zM758.665 510.668l-150-34 82 134-24 14-82-132-38 156h-8c134 76 224 154 278 202-22-70-50-184-58-340z" />
<glyph unicode="&#xe016;" glyph-name="uniE016" d="M735.33 452.668c-176 258-200 466-202 468 0 0 0 2 0 2s0 2-2 2c0 2 0 2 0 2 0 2-2 2-2 2-2 2-2 2-2 2s-2 0-2 2c0 0-2 0-4 0 0 0 0 0 0 0s-2 0-2 0-2 0-2 0-2 0-2 0-2 0-2 0c-2 0-4-2-4-2s-2 0-2 0c0-2 0-2-2-4 0 0-2 0-2-2s0-2 0-4c0 0 0-2 0-2 0-2-28-210-202-468-90-134-110-274-52-384 48-94 148-154 264-154 0 0 4 0 4 2 2 0 4-2 6-2 114 0 214 60 264 154 58 112 38 252-52 386zM757.33 82.668c-44-82-132-134-236-134 0 0-2 0-4-2 0 2-4 2-4 2-104 0-192 52-236 134-52 100-34 228 48 352 118 172 170 320 192 406 22-86 74-234 192-406 82-124 100-252 48-352z" />
<glyph unicode="&#xe017;" glyph-name="uniE017" d="M1008-83.332h-992c-8 0-16 8-16 18 0 8 8 16 16 16h990c10 0 16-8 16-16 0-10-6-18-14-18zM760 460.668c-2 4-8 4-14 4h-158v384h-152v-384h-158c-6 0-12 0-14-4-2-6-2-10 0-16l234-390c2-4 8-6 14-6s10 2 14 6l234 390c2 6 2 10 0 16z" />
<glyph unicode="&#xe018;" glyph-name="uniE018" d="M893.999-51.332c-46 0-70 8-100 18-18 4-36 10-62 18 84 116-4 298-8 306s-12 12-20 8l-128-52-206 526 118 46c12 6 22 16 26 28 6 16 6 34 0 52-10 24-32 42-56 42-6 0-12-2-18-4l-344-138c-14-4-24-18-30-32-4-14-4-32 4-46 10-26 32-44 56-44 6 0 12 2 18 4l114 46 208-522-130-52c-8-2-10-12-8-20 0-4 32-102 100-168-18 0-38 0-56 2-44 4-90-18-92-18-8-4-12-14-8-22s14-12 22-8c0 0 40 20 74 16 38-2 76-2 110 0 10 2 22 4 38 6 8 2 18 4 28 8 66 8 88 10 96 12 22 2 44 0 62-4 36-6 60-16 82-22 30-10 56-20 108-20 10 0 16 8 16 16 2 10-4 18-14 18zM129.999 710.668c-10-4-26 6-32 20-4 8-4 18 0 24 0 4 4 12 10 14l346 138c0 2 2 2 6 2 10 0 22-10 26-22 4-10 4-20 0-28 0-4-4-8-10-10l-132-54-82-32zM339.999 758.668l206-522-50-20-208 522zM363.999 128.668l338 136c18-46 68-186-4-270-38 0-56-2-60-2-22-2-44-4-66-8 2 2 4 6 6 10 0 10-8 18-16 18-42 2-82 62-94 86-4 6-14 10-22 6-6-4-10-14-6-22 2-4 48-92 112-102-4-2-8-2-14-4-14-2-52-10-66-10-60 50-96 130-108 162z" />
<glyph unicode="&#xe019;" glyph-name="uniE019" d="M643.999 72.668c-12 4-24 8-34 10l8 26c10-4 20-8 32-10zM573.999 98.668c-12 6-22 14-30 24l20 16c6-6 14-12 24-20zM527.999 158.668c-2 4-2 10-2 18 0 6 2 14 2 20l26-4c-2-6-2-12-2-16s0-10 2-14zM559.999 226.668l-28 4c2 12 4 22 4 34l26-2c2-12 0-24-2-36zM535.999 296.668c-2 10-4 22-8 30l26 8c4-12 6-24 8-36zM515.999 354.668c-6 8-12 14-20 20l14 22c10-8 20-16 28-28zM467.999 388.668c-8 4-18 6-30 8l2 26c14-2 26-4 38-8zM399.999 402.668c-10 4-22 10-32 16l14 24c8-6 18-10 28-14zM337.999 442.668c-10 8-16 14-26 24l20 18c8-10 16-18 24-24zM719.999 582.668c-90 0-168-74-168-164 0-148 134-180 160-392 2-8 16-8 16 0 26 212 160 244 160 392 0 90-76 164-168 164zM719.999 300.668c-58 0-106 48-106 106 0 60 48 108 106 108 60 0 108-48 108-108 0-58-48-106-108-106zM675.999 486.668c10 2 30 4 48 4 20 0 36-2 46-8 12-8 20-18 20-32 0-16-10-30-28-36 18-4 32-18 32-40 0-14-6-24-16-34-12-8-32-14-64-14-18 0-32 2-40 2v158zM711.999 424.668h12c18 0 28 8 28 22 0 12-8 18-24 18-8 0-14 0-16 0zM711.999 354.668c4 0 8 0 14 0 16 0 30 6 30 22s-14 24-32 24h-14v-46zM271.999 862.668c-70 0-128-58-128-128 0-114 104-140 124-304 0-6 10-6 12 0 20 164 124 190 124 304-2 70-60 128-132 128zM271.999 644.668c-46 0-82 36-82 82s36 84 82 84c46 0 84-38 84-84s-38-82-84-82zM253.999 706.668l-10-32h-28l38 124h36l38-124h-30l-10 32zM285.999 726.668l-8 26c-2 8-4 18-6 24-2-6-4-16-6-24l-8-26zM855.999-81.332h-336c-8 0-16 8-16 16 0 10 8 18 16 18h336c28 0 48 6 60 20 16 16 16 40 16 40v836c0 54-66 56-70 56h-694c-2 0-70-2-70-52v-480c0-8-8-16-16-16-10 0-14 6-14 14v480c0 66 66 82 100 84h694c36-2 102-20 102-86v-838c0 0 2-36-24-62-20-20-48-30-84-30zM507.999-81.332h-340c-34 0-102 18-102 84v480c0 8 8 16 18 16 8 0 16-8 16-16v-480c0-50 66-52 68-52h694c2 0 68 2 68 54v838c0 2 2 24-14 40-14 14-32 22-60 22h-336c-8 0-16 8-16 16 0 10 8 16 16 16h336c36 0 64-10 84-30 26-26 22-62 22-64v-836c0-68-64-86-100-86h-354z" />
<glyph unicode="&#xe01a;" glyph-name="uniE01A" d="M638 128.668c0 0 74-66 114-12 0 0 14 20 18 42 0 0 0 20 22 30 0 0 0-30 26-42 2-2 4-2 6-2 0 0 0 2-4 4s-4 2-6 2c-6 6-12 14-12 20l18-8c0 0 12-6 12-24 0 0 2-12 8-24 0 0-44 6-72-42l-2 6c0 0-2-16-12-20 0 0-2 10-8 12 0 0-2-16-14-22 0 0 2 10-4 14 0 0-12-22-32-20 0 0 2 8 2 20 0 0-22-20-42-12 0 0 10 8 10 22 0 0-24-12-46 24 0 0 6-6 26 2 0 2-12 16-8 30zM688 466.668c0 0 26-6 4-52 0 0-12-36 6-52 0 0 4-4 6-8 0 0-26-8-12-56 0 0-16 6-22 18 0 0 4 2 6 10 0 0-14-4-24 10l12 8c0 0-12 2-22 20l14 4c0 0-16 4-20 20h14c0 0-12 22-8 36 0 0 10-10 18-10 0 0 10 10 0 24 0 0-6 10 2 24 0 0 0-2 8-6 0 0 10 0 14-20l4 2c0-2-8 14 0 28zM888 178.668h16c0 0 80 8 84 110 0 0 2 60-42 90-4 2-10 8-16 10-8 2-22 6-36-2-4-2-10-8-10-14-2-4-4-18 14-34l6 8c0 0-12 10-6 20 4 8 12 8 14 8 10 0 46-4 62-74 0 0 10-54-34-92 0 0 8 24-18 70 0 0-24 36 14 78l-10 8c0 0-48-50-14-96 0 0 28-38 14-60-2-4-8-12-14-12-8-2-24-4-24-4zM940 388.668c0 0 22 22 82 26 0 0 2-16-32-26 0 0 2-6 30 0 0 0-12-26-46-12 0 0-14 6-24 2zM812 504.668c0 0 12-6 10-28l52-22c0 0 6 14 28 20 0 0 0 4-16 4 0 0-2 4-10 6 0 0-4-4 0-14 0 0-8-4-10-4 0 0-4 4-6 10 0 0 10 2 10 10 0 0-4-2-6-2 0 0 8 12-2 20 0 0-8-6-10-16 0 0-4 6-8 6 0 0-4-6 0-14 0 0-4-4-10-6 0 0-6 4-8 10h4c0 0 4 2 8 4 0 0-4 4-10 4v0h2c0 2 2 14-18 12zM968 22.668c-2 4-2 12-2 12l16-2c-16 2-16 28-16 28-2 22 12 38 12 38-44 0-54 28-54 28-20 22-24 70-24 70s-2 4-2 8c-2 4-4 4-8 8-6 6-28 22-30 24-12 10-18 22-18 22-8-10-18-12-18-12v4c42 24 28 66 28 66 4 8 10 20 10 20 32 38 14 96 14 96 8 12-2 14-2 14-10 4-12-2-12-2v0 2l-30 12c-8 6-14 6-14 6-2-8 0-10 0-10 2-2 6-2 6-2 10 4 14-6 14-6v0c-4 4-8 4-8 4-6 0-6-4-6-4-4-4-4 0-4 0l-2 4c-8 2-6 14-6 14-14 0-28-4-28-4-4-2-4-6-4-6l4-6-4-6c-4-14 8-14 8-14h18c14-4 4-14 4-14 0-16-8-12-8-12-12 12-20 4-20 4-4-8 6-10 6-10 18 0 6-14 6-14-6-10-18-8-18-8-28 6-34-8-34-8-12-10-12-42-12-42-6 18 4 40 4 40-28-8-22-58-22-58-10 28 0 44 0 44-24-2-20-38-20-38l8-22-26-12c-20-10-32 0-32 0-34 36-74 6-74 6 18-14 40-10 40-10-6-6-30-16-30-16 38-16 50 0 50 0 4-16-4-24-4-24 14-6 32 12 32 12-2-8-8-14-8-14 14 0 30 16 30 16 0-8-6-16-6-16 20 4 30 18 30 18 0-8-4-16-4-16 10 2 18 8 18 8-18 18-14 30-14 30 6-26 26-30 26-30 18 2 30 30 30 30 16 26 30 24 30 24-18-10-22-24-22-24-8-30-20-32-20-32 2-12 28-20 28-20 6-4 14-10 18-12 38-22 42-58 42-58 4-38 32-50 32-50 58-20 52-64 52-64-6-60-46-82-46-82h2c10-4 18 0 18 0 2-10 0-16 0-16 30 2 48 34 48 34 8-10 20-10 20-10-8 12-4 40-4 40l12-10-6 16v8c4-4 14-8 14-8-2 4-4 8-8 14zM824 444.668c0 0 2 2 2 0v-2c0 0-2 0-4 0 0 0-2-2-4 0zM780 244.668l-12-4-4 2h2l4 2c14 8 22 30 22 30 12 24 28 26 28 26l2-4h-2c-18-6-22-24-22-24 0-26-18-28-18-28zM796 246.668l-2 2c18 6 24 24 24 24 8 30 24 28 24 28l-4-2c-12-4-14-24-14-24-2-26-28-28-28-28zM794 190.668c0 0 18 6 26-12l6-14c0 0 6-8 6-10 0 0-2 8-16 12 0 0-22 8-22 24zM822 472.668v-2l42-20 6 2zM756 454.668c0 0 0-34 30-34 0 0 4 4 22-8v-4c0 0-6 8-20 6 0 0-20-6-32 6 0-2-20 16 0 34zM688 158.668h-96c-10 0-18 8-18 18 0 8 8 16 18 16h96c10 0 18-8 18-16 0-10-8-18-18-18zM262 488.668c-10 0-18 8-18 18v362c0 52 52 66 80 66h414c28 0 82-16 82-68 0-8 0-26 0-48 0-52 0-144 0-256 0-8-8-16-18-16-8 0-16 8-16 16 0 112 0 204 0 256 0 24 0 40 0 48 0 34-44 36-48 36h-412c-2 0-50-2-50-34v-362c0-10-6-18-14-18zM262-83.332c-144 0-260 118-260 260 0 146 118 262 260 262 146 0 262-118 262-262s-116-260-262-260zM262 406.668c-126 0-228-102-228-230 0-126 102-228 228-228 128 0 230 102 230 228 0 128-102 230-230 230zM250 66.668c-2 0-6 0-10 4l-106 106c-8 6-8 18 0 24 6 6 16 6 22 0l92-92 120 176c4 8 14 8 22 4 6-6 8-16 2-22l-128-192c-2-4-6-6-12-6 0-2-2-2-2-2zM484 706.668h-140v138h138v-138zM370 730.668h86v88h-86zM706 704.668h-138v140h138zM592 730.668h88v88h-88zM484 504.668h-140v138h138v-138zM370 530.668h86v86h-86zM706 502.668h-138v140h138zM592 528.668h88v88h-88zM568 320.668v120h58c0 0-2-6-2-10-2-6 0-16 0-16h-32v-86c0 0-6 2-14-2-8-2-10-6-10-6z" />
<glyph unicode="&#xe01b;" glyph-name="uniE01B" d="M405.998-83.332c-6 0-8 2-12 4 0 0-2 0-2 0s-2 0-4 0c-6-2-10-4-14-4s-8 2-12 4c-6 6-8 18-6 26 0 0 0 2-2 2 0 2 0 4-2 12 0 4-2 14-2 18 0 0-2 0-2 2h-4c-4 0-8 0-12 0-6 0-10 0-12 0s-4 2-6 4c-4-4-8-6-14-6-4 0-6 2-10 2 0 0-2 0-4-2s-6-2-8-2c-8 0-14 4-16 8-6 2-14 10-16 10h-2c0 2-4 4-4 6-4 2-4 6-4 8-4 2-6 4-8 8 0 0-2 6-4 14 0 0-2 0-2 0-6 2-10 6-24 28-4 6-4 14 0 18 6 6 14 6 20 4 0 0 4 0 4-2 6 2 8 2 10 4s4 6 6 8c0 0 2 2 4 4s6 4 8 6c-6 0-12 4-14 12 0 4-6 24 8 32 4 2 10 6 14 8 0 6 0 12 6 18 0 2 0 4 2 6s4 8 6 10c4 4 8 10 14 12 0 2 0 6 2 12-2 0-6 2-8 4-18 6-18 6-22 10 0 0-16 18-8 34 0 2 2 2 4 4 0 2 0 2 0 2 4 8 6 10 8 12 0 2 2 4 2 6 0 0 0 0 0 0-2 2-2 2-4 4-2-2-6-4-10-4-6 0-14 4-18 4-14 4-16 14-16 18 0 2 2 6 2 10 0 2 2 4 2 6s0 2 0 4c-2 0-4 4-6 6-2 4-16 28-16 38-2 4-4 12-6 14 0 0 0 0-2 0-8-2-14-4-20-4-2 0-4 0-8 4-10 4-12 18-14 26v4c0 4 0 10-2 14 0 0-12 24-6 36 0 2 4 4 6 4 0 0 0 2 0 2-2 2-2 6-2 10 2 4 4 6 4 8 0 12 0 18 4 24 2 0 2 0 2 2-18 8-24 12-24 22s18 30 18 30c4 2 4 2 6 4 0 0 0 2 2 2 2 2 2 4 2 6 0 0 0 2 0 2s2 2 4 6c0 2 4 8 4 10 0 0 0 4 0 4 0 6 0 12 0 16 2 14 10 18 18 20 6 2 10 2 14 2v0c2 0 2 0 2 0 2 4 4 8 8 12 4 2 6 4 10 6 0 0 0 0 0 0 0 2 0 4-2 8-8 4-8 12-6 16-2 2-2 6-2 12 2 8 8 12 12 16h2c10 8 18 12 22 14 0 2 0 6 2 10s2 6 4 8c-2 0-2 0-4 2-4 4-8 10-4 22 0 2 2 8 4 12s4 6 8 10c2 2 6 2 10 4 0 0 0 0 2 2 2 0 4 2 4 2 0 2 0 6 2 8 0 2 0 2 0 4 2 4 2 6 2 8 0 10 2 16 6 22 2 4 6 6 10 10 2 4 4 8 14 12 4 2 8 2 8 2 10 8 16 8 20 8 0 0 0 0 0 0 0 2 0 2 0 2v4c0 2 2 6 2 8s2 4 2 6c-2 24 0 28 2 30 6 6 12 10 18 10 2 0 4 0 4 0h8c0 0 2 0 4 0 0 0 0 0 2 0s4 0 6 0c2 0 2 0 2 0 8 6 18 8 26 8 16-2 22-12 22-20 0 0 0-2 0-4 0 0 0-2 0-2 2 0 6-2 10-4h2c2 0 2-2 4-2 0 0 0 0 2 2 0 2 0 4 0 6 2 8 8 16 20 16 0 0 2 0 4 0 0 0 2 0 2 0h8c8 0 14-6 16-8 0 0 2-2 2-2 4-2 12-8 10-22 0 0 0-2 0-2 0-4 0-8 0-12 0-2 0-4 0-4 0-2 2-2 4-4h2c4-4 12-6 12-18 2-4 2-6 2-8 0-6-2-8-2-10s0-6 0-8c0 0 0 0 0 2 0-4 0-18 0-22s0-6 0-6c0-4-2-8-4-12 8-8 4-18 0-20 0 0-2-2-2-4s-2-2-2-4c0 0 0 0 0 0s0-2 0-2 0-2 0-6c4-4 8-10 8-18 0-2 0-2 0-2 0-4 0-8 0-12 2-2 4-2 6-6 8-8 4-16 4-18 2-6 2-10 2-12 0 0 0-4-2-6 2 0 2-2 2-2s2 0 2 0c2-2 4-2 6-2 14-6 14-18 12-20 0-2 0-4 0-4s2 0 4 0c6-2 14-8 18-18 0 0 2 0 2-2 0 0 2-2 2-2 2 0 6 0 6 0 2 0 10-4 16-10 2-4 2-10 2-14 0 0 0-2 0-2 0-2 0-2 0-2 6-10 4-18 2-24 2-2 4-4 4-8 2-4 2-8 0-10 0-2 2-4 2-4 4-2 6-4 10-6l2-2c6-6 10-12 14-14 2 0 6 0 10-2 2-2 12-6 12-6 4-2 4-4 8-6 0 0 0 0 0 0 2 0 4 0 4 0 8 0 14-6 16-14 0 0 2-4 2-4 0-4 0-4 0-6 2 0 6 2 10 2s14-2 18-4c2 0 4 0 4 0 2 0 10 0 16-6 2-4 4-6 6-10 2-2 2-4 2-6 2-2 4-4 4-6 2 0 2-2 4-2 0 0 0 0 2-2s4-6 6-6c0 0 0-2 2-2 0 0 2 0 2 0h2c2 0 8 0 14-4 0 0 2-2 4-4 2 0 6 0 8 2 12 8 16 12 22 12 2 0 2 0 4 0 4-2 6-4 18-12 4-2 10-6 12-8 0 0 0 0 0 0 6 4 16 4 16 4 4 0 8-2 10-2 2-2 6-6 8-8 8-6 8-16 2-24-2-4-4-4-4-6-2-2-4-4-6-6s-2-4-4-6c0 0 0-2 0-2 0-2 2-4 2-8 2-2 4-6 4-12 0 0 0 0 0-2 4-6 4-12 0-18-2 0-4-2-4-4s-4-4-8-6c0-2 0-4 0-6s0-2 0-2c2 0 2-2 4-4 4-4 8-10 8-14 2-4 4-10 0-18-2-4-6-6-10-6-2-2-2-4-4-6s-16-16-22-22c-6-4-12-10-18-12 0 0-2-4-4-4-2-2-6-6-10-12 0-2 0-2 0-4 4-6 0-18-4-26 0 0 0 0 0-2 0-4 0-8-2-12-2-2-2-6-4-10-2-2-2-4-4-4 0 0 0-2 0-2 0-4 0-6 0-8-2-6-4-8-10-14-2-2-4-4-6-6s-6-4-10-8c0 0 0-2 0-2-2-4-8-6-16-8 0 0 0 0-2 0 2-6 2-16 2-16 0-4-2-8-4-12 0 0-2-2-2-2 2-2 4-4 4-8 2-4 2-14-6-22 0 0 0-2 0-2-4-4-8-8-10-10 0 0 0-2 0-2 0-4 4-10 2-18 0-4 0-10 0-18 0-2 0-6 0-8s0-6 2-10c0-2 2-6 2-10 0-6 0-18 0-22 0-2 0-4 0-6 0-8 0-16-6-20-4-2-8-6-16-6-4 0-6 2-10 2-2 2-4 4-6 6 0 2 0 2-2 4 0 0 0 0-2 0-6-2-12-2-18 2-4 2-4 6-8 10 0 0 0 2 0 2-2 0-6 0-8 2-4 0-8 2-8 2-8 0-12 4-16 6-2 2-6 4-6 8-4 8-6 14-8 16-2 0-6 2-10 2-2 0-4 2-6 4-8-6-14-4-24 0-2 0-4-2-6-2-2-2-4-2-6-2 0 0-4-2-4-2-8 0-12 4-14 6-2 0-4 0-6 0 2-6 2-16-8-20 0 0-12-6-22-10 0-2-2-4-4-6v-4c-6-8-10-14-18-16 2-4 4-10 0-16s-10-8-18-8c-2 0-6 0-8 2-2 0-2 0-2 2-6 0-12 0-18 4 0 0-2 2-4 4-4-8-6-12-10-14-6-2-14-2-18-2s-6 0-10 2c-6-2-8-4-12-4zM415.998-45.332c6 0 8-2 12-4 0 0 0 0 2 0 2 2 4 4 4 6 2 2 2 4 2 6 6 8 14 8 18 8s8 0 10 0c4-2 8-4 10-8 2 8 8 14 12 16 2 2 6 2 6 2 2 0 4 0 4 0s0 0 0 0c0 2 0 4 0 6 0 8 0 18 10 22 2 2 4 0 6 2 6 0 8-2 12-4-2 10 4 14 6 16 4 4 8 6 12 8 0 0 0 2 2 2 4 2 8 2 10 2 6 0 10 0 16 0 4 0 6-2 8-4 14 6 16 6 26 4 2 0 6 2 8 2 0 0 2 0 2 0 6 0 18-6 22-6 2 0 6 0 6 0 10 0 18-6 20-14 2-2 2-8 4-12 4-2 8-2 10-6 10-2 16-2 20-4 6-2 8-6 12-10 2 0 4-2 8-2 0 4 0 6 0 8 0 4 0 6 0 8 0 6-2 10-2 14 0 2 0 4 0 8 0 8 0 16 0 20 0 0-2 4-2 6l-2 2c-2 6-2 14 0 20 2 4 4 12 12 18 0 0 2 0 2 0-4 4-8 8-10 8-4 4-6 8-6 14 0 4 2 14 8 18 2 4 4 4 8 4 0 2 0 4 0 4 0 8 4 12 10 22 4 6 12 8 18 8 0 2 0 2 2 4 2 0 4 2 4 4 2 2 4 4 8 8 0 2 0 2 0 2 0 4 2 6 2 8 2 4 2 6 6 12 0 2 2 4 2 6s0 4 2 6c0 2 0 4 2 4-4 2-6 4-8 8-6 12 2 22 8 26 0 2 0 2 2 2 2 4 16 18 16 20 4 2 8 8 12 10 2 2 6 4 14 10 2 4 10 10 14 16 0 0 0 0 0 2-2 4 0 10 2 12-4 8-4 14-2 18 0 0 0 0 0 0 0 2 0 4 0 4 0 4 0 8 0 10 0 4 2 10 2 14 2 2 4 4 6 4-4 6-2 12-2 14v0c0 0 0 2 0 4 0 0-2 8-2 10 0 6 2 10 2 12 0 0-2 2-4 2 0 2-2 2-2 2-4 2-6 2-18 10 0 2-2 2-4 4 0-2-2-4-4-4v-2c-8-6-32-6-32-6-2 0-4 0-4 0-4 0-8 4-10 8-4 0-8 0-10 0-8 0-12 6-14 10v0c0 0-4 4-4 4-4 2-4 4-6 6s-4 4-6 8c0 2-2 4-2 4s-2 4-4 6c-4 0-8 2-10 4-2 0-2 0-4 0 0 0 0-2 0-2-2-2-2-4-4-4-2-6-8-8-14-8-2 0-4 0-8 0-10 2-14 14-14 22 0 4 0 8 0 10 0 4-2 4-2 8-4 0-8 0-10 2-4 0-8 4-10 10-2 0-2-2-6-2-6 0-10 2-30 24 0 0 0 0-2 0 0 0-4 0-4 2-8 2-10 8-16 24l-2 4c0 2 0 4 0 6-2 2-2 4-4 4-6 8-2 18 2 24-2 2-4 8-4 12 0 0-2 0-2 0-4-4-8-4-12-2s-4 2-6 4c0 0 0 0-2 0-6-2-14 2-18 8 0 0-4 12-6 14-8 16-6 22-6 24 0 0 0 0 0 2 0 0 0 0-2 0-4 2-6 4-8 6s-6 4-6 4c-4 4-6 8-6 10 0 4 0 8 2 12-2 2-4 4-4 6-2 4-2 8 0 14-2 0-4 4-6 4-4 8-2 14 0 18 0 0 0 2 0 4 0 0 0 0 0 4 0 0 0 2 0 2s-2 0-4 2c0 2-2 6-4 6 0 2 0 4 0 4-2 0-2 0-2 2-6 4-6 12-6 16 0 2 2 6 2 8 0 4-2 10 4 20 0 0 0 0 0 0 0 4 0 6 0 6 0 8 6 14 8 16 0 4 0 10 0 12 0 0 0 2 0 2-2 2-2 4-2 10 0 2 0 6 2 8-6 2-10 6-12 8-6 6-6 12-6 16v2c0 6 0 12 2 16-2-2-4-4-6-6-4-4-12-8-22-12-10-2-18 0-22 4l-4 2c-6 2-14 4-16 8-6 4-10 6-12 14 0 0 0 0 0 2-4-2-8-4-12-6-2 0-2 0-6 0-4-2-8-2-10-2 0-2 0-6 0-8 0-4-2-8-2-12 0-2-2-4-2-6v-4c0-2 0-6 0-6 0-8-4-14-12-20-6-2-8-2-12-4 0 0-4-2-4-2s0 0-2 0c-6-6-12-6-16-6 0-2 0-4-4-6-2-2-4-4-6-6 0 0 0 0 0 0s0 0 0-2c0-8-2-14-4-18 0 0 0 0-2-2 0-2 0-2 0-2 0-2 0-4 0-4 0-6-4-14-12-20-4 0-4-2-6-2-2-2-6-4-10-6 4-2 8-8 8-16 0-6-2-12-6-16 0-4 0-6-4-8 0 0 0 0 0-2 0 0 0-2 0-4-2-8-6-12-34-30 0 0 2-2 2-2 2-2 4-4 8-8 6-6 4-18 4-22v-2c0-8-4-12-12-16 4-6 4-6 2-6s-6-4-10-4c-2-4-2-10-6-14s-10-6-20-6c-2 0-2 0-6 0h-2c0 0 0 0 0 0 0-2 0-4 0-6s0-6 0-8c0-8-4-14-8-22-2-2-2-4-2-4-2-4-2-4-2-6-2-8-8-14-12-16l-2-2c0 0 0 0 0-2 2-2 4-2 6-2 12-6 14-8 16-8 2-2 8-6 8-28 0-6-4-14-12-20-2 0-4-2-6-4 0 0 0-2 0-4 2-6 2-14-4-22 0 0-2-2-4-2 0-4-2-6-4-8 0 0 0-2 0-4 6-8 8-18 8-24v-4c2 0 4 0 4 2 6 2 10 2 10 2 12 0 22-14 24-18s6-16 8-22c2-4 10-20 14-26 2-2 4-2 8-6 4-6 4-14 2-18 0-2 0-2 0-4 0 0 0-2 0-2 4 2 6 4 8 4 8 0 14-4 22-10 0-2 2-2 2-2 4-4 16-14 18-20 6-12-4-22-6-26h-2c-2-4-4-6-6-8 0-2 0-2 0-2-2-4-4-8-4-8 2-2 4-4 8-4 24-10 26-10 30-16s2-12 0-22c0-4-2-4-2-6s0-2 0-4c2-4 2-10 2-12 0-10-8-16-16-18-2-2-6-2-8-2-2-4-2-8-6-12 0 0 0 0 0-2s0-4 0-4c0-6 0-12-10-18 2 0 2-2 4-4 2 0 8-10 2-20 0-2 0-4 0-6 0-10-4-14-24-28 0-2 0-2 0-2 0-4-2-8-6-10 2-4 6-12 6-20 0-2-2-2-4-4 4-2 10-8 10-16 0 0 0 0 0 0 2-2 6-4 8-4 0 0 0-2 2-2 2 2 6 2 10 2 2 0 6 0 6 0 2 0 2-2 2-2 4 2 6 4 8 6 2 0 4 0 8 0 6 0 10-2 14-4 0 0 0-2 0-2 4 0 12 0 18 0 2 0 2 0 4 0 10 0 20-6 24-12 6-4 8-14 10-36 0 0 0-2 0-4 2 0 4-4 4-6 0 0 2 0 2-2 4 0 10-2 12-2 8 4 12 6 16 6zM371.998 926.668c6-2 10-6 12-12-2 6-8 10-12 12z" />
<glyph unicode="&#xe01c;" glyph-name="uniE01C" d="M616 930.668l154-126-194-186 128-128 186 194 128-156v402zM322 364.668l-188-194-126 154v-402h402l-154 126 194 188zM1016 324.668l-124-154-186 194-128-128 192-188-156-126h402zM450 618.668l-192 186 154 126h-402v-402l126 156 186-194z" />
<glyph unicode="&#xe01d;" glyph-name="uniE01D" d="M990 932.668c-10 6-20 6-28 2l-222-90-218 92c-10 4-22 2-30-6l-212-86-216 92c-10 4-20 2-28-2-8-6-14-16-14-26v-866c0-12 8-24 18-28l230-96c10-4 20-2 28 4l216 86 214-90c4-2 8-2 12-2 6 0 12 2 18 6l226 90c12 6 18 16 18 28v866c0 10-4 20-12 26zM82 590.668l194-82c4-2 10 0 14 2 0 0 0 0 2 2l16 6c6-4 12-6 12-8 2 0 2-10 2-12s-4-6-4-6c0 0-2 4-2 4-2 2-8 0-8 0s0-14 0-16c0-2-4-2-4-2 0-2 4-4 4-6 2 0 0-4 0-4h-4c0 0 0-2 0-4 0-4-4-4-4-4 0-2 2-10 4-18 2-6 2-14 2-18 0-2 2-10 2-10 2-2 16 2 18 2 0 0 4-6 6-8s2-10 4-14c0-4 8-22 8-26 2-2 4-4 6-4 2-2 0-6 0-10s-2-12-2-12c0-2 2-2 4-2 2-2 6-4 6-4s4 6 6 6c2 0 6-6 8-8 0-2 8-8 8-10s-2-6-4-6c0-4-2-6-4-8 0 0 0-2-2-4 0-2-2-6-4-10 0-2 2-6 2-10l-88-36-198 84zM548 584.668c0 0 0 2 0 4 0 0 0 0 0 0l2-2c0 0 0 0 0 0-2 0-2-2-2-2zM540 586.668c0 0-2 4-2 6h2c0-2 0-6 0-6zM280-21.332l-198 84v240l194-82c4-2 10 0 14 2 0 0 0 0 2 0l98 42c0-4 0-8 0-8 0-2 0-10 0-12 0 0-4-4-4-4-2-2-2 4-4 4s-2-4-2-4c-2-4-4-4-4-8 0 0 0-6-4-8 0-2 0-10 0-12s-14-12-14-14c0 0 0-8 0-10s2 0 4 0c0 0 2-2 4-2 0 0 0 4 2 4 0 2 2 0 4-4 0-2-4-4-4-6s4-6 4-8c0 0-14-14-14-14-2-2 0-6 0-6 0-2-14-8-14-8-2 0-8 4-8 4s8-16 8-16c2 0 8 4 10 4 0 0 4-6 4-8 0 0-4-2-4-2 0-2 0-12 0-12 0-2 2-2 4-4 4-2 2-6 2-8s2-2 4-4c2-2 6-6 8-6 0 0 4-6 4-4 2 2 6 6 8 6 0-2 2-4 6-4 2 0 6 4 8 6 0 0 4-4 6-6 4 0 14 0 16 0s6-2 8-4c2-4 4-26 4-28 0-4 2-6 4-8 0 0-2-2-2-4-2-2-2-4 0-6zM942 60.668l-202-82-218 92c0 0-2 0-4 2 0 0 0 0 0 0h-2c0 0 0 0 0 2s0 6 0 8v0c2-2 8-6 8-6 2 0 10 4 12 6 0 0 0 6-2 8 0 4 0 4 2 6 0 0 4 2 4 4 2 0 8 0 10-2 2 0 4-4 6-4s8 6 8 6c2 0 8-4 10-4s2 4 2 4c2 0 8-4 10-6 0 0 6 0 6 0 2 0 2 0 2-2s4-20 4-20c0 0 2 2 2 0 2 0 0-2 0-4 0 0 2 0 4-2 0 0 10-2 12-2 2-2 4-10 6-10 0-2 2 0 2 0 2 0 6-2 6-2 2 0 6-8 6-8 0-2 2 2 2 2s0 6 0 10c0 4 0 12 0 18 0 4-2 12-2 16 0 6 0 18 0 22s0 10-2 14c0 2 0 4 0 6 0 0 2 6 2 8 4 0 6 6 8 8 0 2 0 6 0 6 0 2-2 4-4 6 0 2-6 8-6 8s0 4 2 4c0 2 6 0 8 2 0 0 0 0 0 0v16c0 2 2 6 4 8 0 2 4 2 6 2 0 0 0 2 2 4 2 0 4 4 6 8 0 2 6 8 6 10 0 0 0 4 0 6 0 0 0 0 0 4 0 2 4 8 4 12 0 0 2 2 2 2l60-26c2 0 4 0 6 0 4 0 8 0 10 2l192 78v-240zM942 332.668l-202-82-66 28c2 4 8 12 8 16 2 2 4 2 6 4s4 6 8 10c4 4 12 16 12 18 2 0 0 6 0 8s0 0 2-2c2 0 2 0 4 0s0 4 0 6c0 2-2 4-2 6-4 2-4 2-4 6-2 0 0 4 0 8s0 8 0 10c0 0 0 4 0 6s4 2 4 2c0 0 2 2 2 2 0 2 0 4-2 6 0 2 0 2 0 4s0 4-2 4c0 0 0 0 0 4 0 2 0 4 0 4s-2 6-2 8c0 0 0 2 2 4s2 6 4 8c0 2 0 4 2 4 0 2 2 4 2 4 0 2 0 4 0 4-2 0-4 4-4 4s-4-2-6-2c0-2 0-6 0-6-2 0-8 4-8 4-2 2-14 14-14 14-2 0-8-6-10-8 0-2-12-2-12-2-2 0-2 4-4 6-2 0-2 0-2 0-2 0-4 0-6 0s-2 4-2 4c-2 2-4 6-6 8 0 0-2 6-4 6 0 4-4 10-4 12 0 0 0 0-2 0s-4 2-4 2c-2 0-6 2-8 2 0 0-4-4-4-4-2 0-4-8-4-8 0-2-2 0-2 0s-2 10-2 16c-2 6-2 12-2 14s-2 2-4 2c0 0-6 0-6 0s0 4 0 4c0 2 0 2-2 2 0 0-6 4-6 4-2 0-4 0-4 0-2 0-12 16-14 18 0 0-4 0-4 2 0 0-4 12-4 14s0 4 0 6l-4 6c0 0 2 8 2 8 2 4 0 6 0 8 0 0-2 4-2 6 0 4 2 6 2 8 0 0-2 0-2 0l174-74c2 0 4 0 6 0 4 0 8 0 10 2l192 78v-256zM942 622.668l-202-84-220 94c0 0-2 2-2 2s0 2 2 2 2 6 2 6c0 2 0 4-2 6s-2 2-4 2c0 2 0 4 2 4 0 0 0 2 2 2 0 2-2 2-4 4 0 0 6 2-6 4 0 0 0 2 0 2-2 2 2 2 2 6s2 6 2 10c0 2-4 8-4 10 0 0 0 4 0 8 0 0-4 0-4 0s0 4 0 4c0 2 2 2 2 2 2 0 2 2 4 4 0 2 2 4 2 8 0 0 0 2-2 2 0 0 0 0-2 0-2-2-2-2-4-2 0 2 2 4 2 6 2 0 0 8 0 8 0 2 2 4 4 4 0 2 4 0 4 0s0 2 0 6c0 4 0 14 0 14 0 2 0 4 0 6s-2 2-2 4c0 2 2 2 2 4 0 0 0 0 0 2s0 2 0 6c0 2 0 2-4 4-4 4-4 2-4 2-2 0-4 2-4 2s0 4 0 6c0 2 0 8 0 10s0 6 0 8c0 4 0 6-2 8-2 0-2 2-4 2 0 0-2 4-4 4 0 0-4 0-8 0-2 0-4 0-4-4 0 0 2-2 2-4s0-4-2-6c0 0-4-4-8-4-4-2-6 0-8 0-2 2-8 4-10 8-2 2-2 2-2 4s0 6 0 10c0 2-4 4-6 4s-6-2-8-4c-4-4-4-4-8-4-6-2-6 0-6 0s-4 0-6 0c-2 0-2-2-2-4-2 0 0-14 0-16 0-4-2-10-2-14s0-8 0-10c0-2-2-2-4-4 0 0 0 0-2 0-2-2-4 0-8-4s-4-2-8-4-4-4-4-8c-2 0-4 0-6-4 0-4-2-6-2-10 0-6-2-10-2-14-2-4 0-8 0-8 0-2-2-4-4-6 0 0-2 0-4-2 0-2-6-2-6-4-2-2-2-2-4-6 0-2 0-4 0-6 0 0-2-4 0-4 0-2 2 0 2 0s2-2 2-4c2 0 2-4 2-4 0-2-2-4-2-4 0-2 0-4 0-6-2 0-2 0-4-4 0-2 0-4 0-6 0-4-18-18-18-18-2-2-4-4-4-4 0-2 2-4 2-4s0-2 0-4c0-2 0-2 2-2 2-2 0-4 2-4s4-4 6-6c0-2 0-8 0-10s0-2-4-4c-2-2-8-6-8-6-2-2-2-8-4-10-2-4-6-2-8-2s-6 0-8-2c-4 0-2-2-2-6-2-4 0-8 0-14 0-4-4-14-6-18 0 0 0-2 0-2l-32-12-198 84v238l188-78c10-4 20-4 28 2 0 0 0 0 0 0l216 88 214-90c10-6 22-4 30 2l184 76z" />
<glyph unicode="&#xe01e;" glyph-name="uniE01E" d="M831.999 872.668c-96 76-158 56-158 56l-270-336-308-384-28-292 278 92 306 384 270 336c0 0 6 66-90 144zM325.999 40.668l-96-30c-12 16-24 34-46 52-24 18-44 28-62 36l10 98 26 30c0 0 52 6 118-48 68-54 74-106 74-106z" />
<glyph unicode="&#xe01f;" glyph-name="uniE01F" horiz-adv-x="992" d="M514 932.668c-166 0-304-132-304-298 0-266 242-324 290-710 2-12 24-12 26 0 46 386 288 444 288 710 2 166-136 298-300 298zM514 384.668c-128 0-234 104-234 232s106 234 234 234c128 0 232-106 232-234s-104-232-232-232zM576 748.668c0-34-24-60-64-60s-64 26-64 60c0 34 24 60 64 60s64-26 64-60zM466 640.668h92v-200h-92z" />
<glyph unicode="&#xe020;" glyph-name="uniE020" d="M1018 362.667c-4 58-56 104-114 100-24-2-46-12-64-28l-300 234c10 16 14 36 12 56-2 60-54 104-112 100s-104-54-100-112c4-32 18-60 42-78l-238-444c-14 6-28 6-42 6-58-4-104-56-100-114s56-102 114-98c56 2 102 54 100 112-4 32-18 58-42 76l236 444c14-4 28-6 42-6 26 2 48 12 66 28l300-232c-10-18-14-36-12-56 2-60 54-104 112-100s104 54 100 112z" />
<glyph unicode="&#xe021;" glyph-name="uniE021" d="M722.666 932.668l-60-78 164-134-46-60-166 136-34-42 100-84-48-58-102 82-34-42 166-136-48-60-164 136-36-42 96-78-48-58-94 78-36-42 166-138-48-58-166 136-34-44 86-68-50-60-84 70-34-42 164-136-46-60-166 136-66-82 224-182 670 828z" />
<glyph unicode="&#xe022;" glyph-name="uniE022" d="M637.333 403.335c0-60-48-106-106-106-60 0-106 46-106 106 0 58 46 106 106 106 58 0 106-48 106-106z" />
<glyph unicode="&#xe023;" glyph-name="uniE023" d="M793.996-13.332v884c0 54-32 68-52 68h-424c-38 0-60-36-62-56 0 0 0-892 0-892 0-58 42-76 62-76h394c30 0 50 8 64 26 16 18 18 40 18 46zM527.996-15.332c-30 0-54 24-54 56 0 30 24 54 54 54 32 0 56-24 56-54 0-32-26-56-56-56zM759.996 150.668h-476l2 724c0 6 14 26 32 26h406c6 0 32-2 32-32z" />
<glyph unicode="&#xe024;" glyph-name="uniE024" d="M941.332 890.668l-748 44c0 0-108 12-108-44 0-54 0-838 0-838s48-140 216-130c180 48 640 204 640 204v604h-74l-214-322-254 312-100 2 4-572c0 0 40-32 88 0 2 188 4 412 4 412l254-278 220 302 2-416-560-158c0 0-124 4-122 106 2 104 12 716 12 716l740-24z" />
<glyph unicode="&#xe025;" glyph-name="uniE025" d="M256 470.668h512v-92h-512z" />
<glyph unicode="&#xe026;" glyph-name="uniE026" d="M284-35.332l-16 20c0 0 126 106 252 212 108 90 126 130 138 160 2 4 4 8 6 12 10 24 16 294 18 460 0 6 6 12 14 12 6 0 12-6 12-12-2-74-6-438-20-470-2-4-4-8-6-12-12-32-30-74-144-170-126-106-254-212-254-212zM126 34.668c-4 0-6 2-10 6s-4 14 2 18c0 0 126 106 254 212 106 90 124 130 136 160 2 4 4 8 6 12 10 24 16 296 18 460 0 6 6 12 14 12 6 0 12-6 12-12-2-72-6-438-20-470-2-4-4-8-6-12-12-32-30-74-144-170-126-106-254-212-254-212-2-2-4-4-8-4zM342 560.668c0 0-2 0-2 0l-110 10c-6 0-10 4-12 8s-4 10-2 14l58 174c2 6 8 12 16 12h246c10 0 16-8 16-16 0-10-6-18-16-18h-236l-48-144 92-8c8 0 14-8 14-18 0-8-8-14-16-14zM496 370.668c-4 0-6 0-8 4l-194 108c-8 2-12 14-8 20l42 82c2 6 8 8 16 8l188-16c8-2 14-10 14-18-2-10-10-16-18-14l-178 16-30-58 182-102c8-4 10-14 6-22-2-4-6-8-12-8zM584-83.332c-2 0-6 2-10 4l-186 124c-8 4-10 14-6 22 6 6 16 8 22 4l178-118 166 134-96 60c0 0-2 0-2 2l-74 56c-8 6-8 16-4 24 6 8 16 8 24 4l72-56 116-72c4-2 8-6 8-12s-2-10-8-12l-192-158c0-4-4-6-8-6zM900 530.668c-2 0-2 0 0 0l-204 12c-10 0-16 6-16 16 0 8 8 16 16 16l188-12 2 172-184 10c-8 0-14 8-14 16 0 10 8 16 16 16l198-10c10 0 16-8 16-18l-2-202c0-4-2-10-6-12-2-4-6-4-10-4zM1000 312.668c0 0 0 0-2 0l-316 58c-8 0-14 10-12 18 0 10 10 14 18 14l298-54v168l-88 14c-10 0-16 8-14 18 0 8 8 14 18 14l100-16c8 0 14-8 14-16v-202c0-4-2-8-4-12-4-2-8-4-12-4zM902 58.668c0 0 0 0 0 0l-128 14c-8 2-14 10-14 18 2 10 10 16 18 14l112-12 46 248c2 10 12 14 20 14 10-2 14-12 12-20l-48-262c-4-8-10-14-18-14zM364 238.668c-4 0-6 2-10 4l-238 216c-4 4-8 8-6 14s4 10 10 12l104 56c4 2 8 2 14 0l70-30c6-4 10-12 8-20s-12-12-20-8l-64 24-78-40 222-200c6-6 8-16 2-24-4-2-8-4-14-4zM184 96.668c-4 0-10 2-12 4l-166 190c-2 2-4 6-4 12 2 4 4 8 8 12l168 106c8 6 18 4 22-4s2-18-6-22l-152-98 152-174c6-8 6-18 0-24-4 0-8-2-10-2zM486 140.668c-4 0-10 4-10 10s4 10 10 10h194c4 0 10-4 10-10s-4-10-10-10zM486-1.332c-6 0-12 4-12 10s4 10 10 10h186c4 0 10-4 10-10s-4-10-10-10zM432 92.668c-4 0-10 4-10 10s4 10 10 10h310c4 0 10-4 10-10s-4-10-10-10zM732 44.668h-324c-6 0-12 4-12 10 0 8 4 12 12 12h324c6 0 10-4 10-12 0-6-4-10-10-10zM480 560.668c-6 0-10 4-10 10l4 184c0 6 6 10 12 10 4 0 8-6 8-10l-6-186c2-6-2-8-8-8zM412 560.668c-4 0-10 4-10 10l6 184c0 6 4 10 10 10 4 0 8-6 8-10l-4-186c0-6-4-8-10-8zM350 560.668c-4 0-10 4-10 10l6 184c0 6 4 10 10 10 4 0 8-6 8-10l-4-186c0-6-4-8-10-8zM296 570.668c-6 0-10 6-10 10l4 174c0 6 6 10 10 10 6 0 10-6 10-10l-6-174c0-6-4-10-8-10zM888 336.668c-2 0-4 2-6 2-4 4-4 12 0 16l118 110c4 4 12 4 16 0 2-4 2-10 0-14l-120-112c-4 0-6-2-8-2zM808 356.668c-2 0-6 2-8 4-4 4-4 10 0 14l170 156c4 4 10 4 14 0 4-2 4-10 0-14l-170-156c-2-4-4-4-6-4zM724 370.668c-4 0-6 0-8 2-4 4-4 10 0 14l162 152c4 4 10 4 14 0s4-10 0-14l-162-152c-2-2-4-2-6-2zM684 424.668c-2 0-4 2-6 4-4 4-4 10 0 14l128 118c4 4 10 4 14 0s4-10 0-14l-128-118c-2-4-4-4-8-4z" />
<glyph unicode="&#xe027;" glyph-name="uniE027" d="M898-15.333h-808c0 0-86 2-86 110v462c0 0 0 0 0 2 4 30 28 84 86 84h128l26 76c32 96 96 98 100 98h344c2 0 68-2 100-98 0-6 4-14 6-24 2-6 4-14 4-14-14-4-32-6-32-6-2 4-2 4-4 12s-6 18-6 22c-26 72-70 74-70 74h-342c-2 0-46-2-68-74l-28-86c-4-6-8-12-16-12h-142c-42 0-52-48-54-56v-460c0-78 52-78 54-78h808c38 0 66 10 82 28s10 44 10 44c0 2 0 2 0 2v450c0 26-6 44-18 56-16 14-36 14-36 14s-62 0-62 0c2 10 6 24 10 32h52c0 0 32 0 58-22 18-18 28-46 28-80v-448c2-8 4-42-18-70-22-24-56-38-106-38zM926 740.667c-114-88-198-44-268-114-28-28-38-66-30-104-32 16-70 26-110 26-132 0-238-106-238-238s106-238 238-238c132 0 238 106 238 238 0 46-12 90-36 124 36-4 72 6 96 32 72 70 28 154 116 268 4 4-2 10-6 6zM518 104.667c-114 0-206 92-206 206s92 206 206 206c114 0 206-92 206-206s-92-206-206-206zM894 698.667c-70-90-36-156-92-212-32-32-82-34-114-6-4 4-8 6-12 10-32 34-32 88 2 122 54 54 122 22 210 90 4 2 8-2 6-4z" />
<glyph unicode="&#xe028;" glyph-name="uniE028" d="M932 400.667h-48c-26 0-40-12-40-36v-346c0-24 14-38 40-38h48c26 0 40 14 40 38v346c0 24-14 36-40 36zM214 192.667c0-28-22-48-48-48-28 0-50 20-50 48 0 26 22 48 50 48 26 0 48-22 48-48zM450 506.667c0-28-22-50-50-50-26 0-48 22-48 50 0 26 22 48 48 48 28 0 50-22 50-48zM716 380.667c0-26-22-48-50-48-26 0-48 22-48 48s22 48 48 48c28 0 50-22 50-48zM952 694.667c0-28-22-50-50-50-26 0-48 22-48 50 0 26 22 48 48 48 28 0 50-22 50-48zM12 86.667c-4 0-6 0-8 4-2 6-2 10 2 14l152 96 234 312c4 4 8 4 12 2l260-122 230 308 114 164c4 4 10 4 14 2s4-8 2-12l-114-166-236-314c-2-4-8-4-10-2l-260 122-232-308c0 0 0 0-2-2l-154-98c0 0-4 0-4 0zM170 278.667l74 100v110c0 26-24 52-50 52h-60c-26 2-44-26-44-52v-260c12 30 44 52 80 50zM166 104.667c-12 0-20 4-30 8l-46-30v-64c0-26 18-40 44-40h60c26 0 50 14 50 40v132c-14-28-44-46-78-46zM674 292.667c-36 0-72 22-86 54v-328c0-24 20-38 46-38h64c26 0 58 14 58 38v320c-26-28-50-46-82-46zM674 466.667l82 100v62c0 26-32 52-58 52h-64c-24 0-46-26-46-52v-154l40-18c14 8 32 12 46 10zM398 592.667c34 0 50-18 76-46v288c0 24-18 40-44 40h-62c-26 0-48-14-48-40v-292c12 30 42 50 78 50zM398 418.667l-78-104v-296c0-24 22-38 48-38h62c26 0 44 14 44 38v396l-34 16c-12-8-26-12-42-12z" />
<glyph unicode="&#xe029;" glyph-name="uniE029" d="M514 874.667c0 0 0 0 0 0s-2 0-4 0c0 0-2 0-2 0-86 0-160-32-214-90-58-64-82-146-78-200-4-114 76-232 106-278 4-4 6-10 8-12l4-6c16-24 56-90 60-102 2-8 10-10 16-10 0 0 4 0 4 0 8 2 14 14 10 20-6 14-34 62-64 110l-2 4c0 4-4 8-8 14-30 44-106 158-102 260v2c-4 48 16 122 70 178 46 52 112 78 188 80 2 0 4 0 4 0 2 0 2 0 4 0 76 0 142-28 188-78 54-58 74-132 72-178v-4c2-102-74-216-104-258-4-6-6-10-8-14l-6-8c-28-46-56-94-60-108-4-6 0-18 8-20 2 0 4 0 6 0 6 0 12 2 14 10 6 12 46 78 60 102l4 8c2 2 6 6 8 12 32 46 112 164 108 276 2 56-20 138-80 202-50 56-124 88-210 88zM602 132.667h-180c-8 0-12-6-12-14 0-6 4-12 12-12h180c8 0 12 6 12 12 0 8-4 14-12 14zM180 606.667c0 6-6 12-14 12h-154c-6 0-12-6-12-12 0-8 6-14 12-14h154c8 0 14 6 14 14zM1012 618.667h-154c-8 0-14-6-14-12 0-8 6-14 14-14h154c6 0 12 6 12 14 0 6-6 12-12 12zM936 886.667c-6 4-14 4-18 0l-106-106c-6-6-6-14 0-18 2-4 6-4 8-4 4 0 6 0 10 4l106 106c4 4 4 12 0 18zM100 886.667c-6 4-12 4-18 0-6-6-6-14 0-18l106-106c2-4 6-4 10-4 2 0 6 0 8 4 6 4 6 12 0 18zM852 458.667c-4 6-12 6-18 0-4-6-4-12 0-18l106-106c4-2 8-4 10-4s6 2 8 4 6 12 0 18zM166 458.667l-108-106c-4-6-4-14 0-18 4-2 8-4 10-4s6 2 8 4l108 106c4 6 4 12 0 18-6 6-16 6-18 0zM602 80.667h-180c-8 0-12-4-12-12s4-14 12-14h180c8 0 12 6 12 14s-4 12-12 12zM596 30.667h-176c-6 0-12-4-12-12-2-6 0-10 6-14 4 0 50-20 94-20s92 20 94 20c4 4 8 10 8 14-2 6-8 12-14 12z" />
<glyph unicode="&#xe02a;" glyph-name="uniE02A" d="M224 317.334c-38 0-70 30-70 68 0 40 32 70 70 70s70-30 70-70c0-38-32-68-70-68zM408 317.334c-40 0-70 30-70 68 0 40 30 70 70 70 38 0 68-30 68-70 0-38-30-68-68-68zM590 317.334c-38 0-70 30-70 68 0 40 32 70 70 70s70-30 70-70c0-38-32-68-70-68zM870 901.334h-724c-74 0-142-68-142-142v-466c0-72 68-142 142-142h374c18-18 38-32 60-44 20-12 44-22 66-34 42-22 86-52 128-108 2-4 10 0 10 4-30 72-32 128-30 178 0 2 0 4 0 6h116c74 0 142 68 142 142v464c0 74-68 142-142 142zM962 317.334v-24c0-44-48-90-92-90h-160c0-16-2-32-2-52 0-4 0-8 0-10 2-22 4-48 16-76 2-2-2-4-4-2-18 24-36 38-54 52-24 14-46 24-66 36 0 0 0 0-2 0-16 10-28 22-38 38-4 4-4 8-6 14h-408c-44 0-90 48-90 90v466c0 46 46 92 90 92h724c46 0 92-48 92-92z" />
<glyph unicode="&#xe02b;" glyph-name="uniE02B" d="M990 932.667c-10 6-20 6-28 2l-222-90-218 92c-10 4-22 2-30-6l-212-86-216 92c-10 4-20 2-28-2-8-6-14-16-14-26v-866c0-12 8-24 18-28l230-96c10-4 20-2 28 4l216 86 214-90c4-2 8-2 12-2 6 0 12 2 18 6l226 90c12 6 18 16 18 28v866c0 10-4 20-12 26zM82 590.667l194-82c4-2 10 0 14 2 0 0 0 0 2 2l16 6c6-4 12-6 12-8 2 0 2-10 2-12s-4-6-4-6c0 0-2 4-2 4-2 2-8 0-8 0s0-14 0-16c0-2-4-2-4-2 0-2 4-4 4-6 2 0 0-4 0-4h-4c0 0 0-2 0-4 0-4-4-4-4-4 0-2 2-10 4-18 2-6 2-14 2-18 0-2 2-10 2-10 2-2 16 2 18 2 0 0 4-6 6-8s2-10 4-14c0-4 8-22 8-26 2-2 4-4 6-4 2-2 0-6 0-10s-2-12-2-12c0-2 2-2 4-2 2-2 6-4 6-4s4 6 6 6c2 0 6-6 8-8 0-2 8-8 8-10s-2-6-4-6c0-4-2-6-4-8 0 0 0-2-2-4 0-2-2-6-4-10 0-2 2-6 2-10l-88-36-198 84zM548 584.667c0 0 0 2 0 4 0 0 0 0 0 0l2-2c0 0 0 0 0 0-2 0-2-2-2-2zM540 586.667c0 0-2 4-2 6h2c0-2 0-6 0-6zM280-21.333l-198 84v240l194-82c4-2 10 0 14 2 0 0 0 0 2 0l98 42c0-4 0-8 0-8 0-2 0-10 0-12 0 0-4-4-4-4-2-2-2 4-4 4s-2-4-2-4c-2-4-4-4-4-8 0 0 0-6-4-8 0-2 0-10 0-12s-14-12-14-14c0 0 0-8 0-10s2 0 4 0c0 0 2-2 4-2 0 0 0 4 2 4 0 2 2 0 4-4 0-2-4-4-4-6s4-6 4-8c0 0-14-14-14-14-2-2 0-6 0-6 0-2-14-8-14-8-2 0-8 4-8 4s8-16 8-16c2 0 8 4 10 4 0 0 4-6 4-8 0 0-4-2-4-2 0-2 0-12 0-12 0-2 2-2 4-4 4-2 2-6 2-8s2-2 4-4c2-2 6-6 8-6 0 0 4-6 4-4 2 2 6 6 8 6 0-2 2-4 6-4 2 0 6 4 8 6 0 0 4-4 6-6 4 0 14 0 16 0s6-2 8-4c2-4 4-26 4-28 0-4 2-6 4-8 0 0-2-2-2-4-2-2-2-4 0-6zM942 60.667l-202-82-218 92c0 0-2 0-4 2 0 0 0 0 0 0h-2c0 0 0 0 0 2s0 6 0 8v0c2-2 8-6 8-6 2 0 10 4 12 6 0 0 0 6-2 8 0 4 0 4 2 6 0 0 4 2 4 4 2 0 8 0 10-2 2 0 4-4 6-4s8 6 8 6c2 0 8-4 10-4s2 4 2 4c2 0 8-4 10-6 0 0 6 0 6 0 2 0 2 0 2-2s4-20 4-20c0 0 2 2 2 0 2 0 0-2 0-4 0 0 2 0 4-2 0 0 10-2 12-2 2-2 4-10 6-10 0-2 2 0 2 0 2 0 6-2 6-2 2 0 6-8 6-8 0-2 2 2 2 2s0 6 0 10c0 4 0 12 0 18 0 4-2 12-2 16 0 6 0 18 0 22s0 10-2 14c0 2 0 4 0 6 0 0 2 6 2 8 4 0 6 6 8 8 0 2 0 6 0 6 0 2-2 4-4 6 0 2-6 8-6 8s0 4 2 4c0 2 6 0 8 2 0 0 0 0 0 0v16c0 2 2 6 4 8 0 2 4 2 6 2 0 0 0 2 2 4 2 0 4 4 6 8 0 2 6 8 6 10 0 0 0 4 0 6 0 0 0 0 0 4 0 2 4 8 4 12 0 0 2 2 2 2l60-26c2 0 4 0 6 0 4 0 8 0 10 2l192 78v-240zM942 332.667l-202-82-66 28c2 4 8 12 8 16 2 2 4 2 6 4s4 6 8 10c4 4 12 16 12 18 2 0 0 6 0 8s0 0 2-2c2 0 2 0 4 0s0 4 0 6c0 2-2 4-2 6-4 2-4 2-4 6-2 0 0 4 0 8s0 8 0 10c0 0 0 4 0 6s4 2 4 2c0 0 2 2 2 2 0 2 0 4-2 6 0 2 0 2 0 4s0 4-2 4c0 0 0 0 0 4 0 2 0 4 0 4s-2 6-2 8c0 0 0 2 2 4s2 6 4 8c0 2 0 4 2 4 0 2 2 4 2 4 0 2 0 4 0 4-2 0-4 4-4 4s-4-2-6-2c0-2 0-6 0-6-2 0-8 4-8 4-2 2-14 14-14 14-2 0-8-6-10-8 0-2-12-2-12-2-2 0-2 4-4 6-2 0-2 0-2 0-2 0-4 0-6 0s-2 4-2 4c-2 2-4 6-6 8 0 0-2 6-4 6 0 4-4 10-4 12 0 0 0 0-2 0s-4 2-4 2c-2 0-6 2-8 2 0 0-4-4-4-4-2 0-4-8-4-8 0-2-2 0-2 0s-2 10-2 16c-2 6-2 12-2 14s-2 2-4 2c0 0-6 0-6 0s0 4 0 4c0 2 0 2-2 2 0 0-6 4-6 4-2 0-4 0-4 0-2 0-12 16-14 18 0 0-4 0-4 2 0 0-4 12-4 14s0 4 0 6l-4 6c0 0 2 8 2 8 2 4 0 6 0 8 0 0-2 4-2 6 0 4 2 6 2 8 0 0-2 0-2 0l174-74c2 0 4 0 6 0 4 0 8 0 10 2l192 78v-256zM942 622.667l-202-84-220 94c0 0-2 2-2 2s0 2 2 2 2 6 2 6c0 2 0 4-2 6s-2 2-4 2c0 2 0 4 2 4 0 0 0 2 2 2 0 2-2 2-4 4 0 0 6 2-6 4 0 0 0 2 0 2-2 2 2 2 2 6s2 6 2 10c0 2-4 8-4 10 0 0 0 4 0 8 0 0-4 0-4 0s0 4 0 4c0 2 2 2 2 2 2 0 2 2 4 4 0 2 2 4 2 8 0 0 0 2-2 2 0 0 0 0-2 0-2-2-2-2-4-2 0 2 2 4 2 6 2 0 0 8 0 8 0 2 2 4 4 4 0 2 4 0 4 0s0 2 0 6c0 4 0 14 0 14 0 2 0 4 0 6s-2 2-2 4c0 2 2 2 2 4 0 0 0 0 0 2s0 2 0 6c0 2 0 2-4 4-4 4-4 2-4 2-2 0-4 2-4 2s0 4 0 6c0 2 0 8 0 10s0 6 0 8c0 4 0 6-2 8-2 0-2 2-4 2 0 0-2 4-4 4 0 0-4 0-8 0-2 0-4 0-4-4 0 0 2-2 2-4s0-4-2-6c0 0-4-4-8-4-4-2-6 0-8 0-2 2-8 4-10 8-2 2-2 2-2 4s0 6 0 10c0 2-4 4-6 4s-6-2-8-4c-4-4-4-4-8-4-6-2-6 0-6 0s-4 0-6 0c-2 0-2-2-2-4-2 0 0-14 0-16 0-4-2-10-2-14s0-8 0-10c0-2-2-2-4-4 0 0 0 0-2 0-2-2-4 0-8-4s-4-2-8-4-4-4-4-8c-2 0-4 0-6-4 0-4-2-6-2-10 0-6-2-10-2-14-2-4 0-8 0-8 0-2-2-4-4-6 0 0-2 0-4-2 0-2-6-2-6-4-2-2-2-2-4-6 0-2 0-4 0-6 0 0-2-4 0-4 0-2 2 0 2 0s2-2 2-4c2 0 2-4 2-4 0-2-2-4-2-4 0-2 0-4 0-6-2 0-2 0-4-4 0-2 0-4 0-6 0-4-18-18-18-18-2-2-4-4-4-4 0-2 2-4 2-4s0-2 0-4c0-2 0-2 2-2 2-2 0-4 2-4s4-4 6-6c0-2 0-8 0-10s0-2-4-4c-2-2-8-6-8-6-2-2-2-8-4-10-2-4-6-2-8-2s-6 0-8-2c-4 0-2-2-2-6-2-4 0-8 0-14 0-4-4-14-6-18 0 0 0-2 0-2l-32-12-198 84v238l188-78c10-4 20-4 28 2 0 0 0 0 0 0l216 88 214-90c10-6 22-4 30 2l184 76z" />
<glyph unicode="&#xe02c;" glyph-name="uniE02C" d="M1024 870.668l-62 62-450-450-450 450-62-62 450-450-450-450 62-62 450 450 450-450 62 62-450 450z" />
<glyph unicode="&#xe02d;" glyph-name="uniE02D" d="M751.999 920.668c-8 8-18 14-18 16-4 2-6 2-8 0-2 0-12-8-20-16l-180-148c-8-8-22-8-32 0l-180 148c-8 8-18 14-18 16-2 2-6 2-8 0-2 0-12-8-20-16l-188-154c-8-8-16-24-16-36v-804c0-10 8-14 16-6l194 160c8 8 22 8 32 0l180-148c8-8 18-14 18-16 2-2 6-2 8 0 2 0 12 8 20 16l178 148c10 8 24 8 32 0l194-160c10-8 16-4 16 6v804c0 12-8 28-16 34zM281.999 168.668c0-12-6-28-14-34l-172-144c-8-6-16-4-16 8v688c0 12 8 26 16 34l170 142c10 8 16 4 16-8v-686zM501.999-1.332c0-12-8-14-16-8l-172 142c-8 8-14 24-14 34v688c0 12 8 16 14 8l172-142c10-8 16-22 16-32zM719.999 168.668c0-12-8-28-14-34l-172-144c-10-6-16-4-16 8v688c0 12 8 26 16 34l172 142c8 8 14 4 14-8zM939.999-1.332c0-12-8-14-16-8l-172 142c-8 8-14 24-14 34v688c0 12 6 16 14 8l172-142c10-8 16-22 16-32z" />
<glyph unicode="&#xe02e;" glyph-name="uniE02E" d="M170-17.333c0 168 126 308 286 338 16 2 32 4 48 4 4 0 8 0 12 0s8 0 12 0c16 0 34-2 50-4 162-30 286-170 286-338 0-24 0-44-4-66h48c6 34 10 68 10 106 0 182-126 336-294 384 62 100 130 172 130 296 0 130-110 234-238 234s-236-104-236-234c0-124 66-196 128-296-166-48-294-200-294-384 0-38 4-72 10-106h50c-4 22-4 42-4 66zM354 684.667c0 88 74 162 162 162s164-72 164-162c0-108-76-160-124-266-12 0-26 2-40 2s-26-2-40-2c-46 106-122 158-122 266z" />
<glyph unicode="&#xe02f;" glyph-name="uniE02F" d="M998 559.334c0 0 0 2 0 2 0 30-14 56-30 80-14 20-26 40-40 60-24 40-48 86-56 156 0 4-10 4-10 0-10-76-36-124-62-166-2-4-6-6-8-12-2-2-4-8-6-8h-18v148c0 32-24 60-56 60h-420c-32 0-62-28-62-60v-146h-86c-72 0-144-68-144-142v-256c0-70 72-140 144-140h86v-116c0-32 32-50 62-50h420c32 0 56 18 56 50v116h92c74 2 138 70 138 142zM804 611.334c4 6 8 12 12 20 8 14 18 28 28 44 0 2 0 4 2 6 10 18 16 38 20 66 0 2 4 2 4 0 4-30 12-52 22-70 0 0 0 0 0-2 12-24 28-42 38-62 8-14 14-28 16-46 0-4 2-6 2-10 0-42-36-76-78-76-44 0-78 34-78 76-2 24 2 38 12 54zM282 819.334c0 4 6 8 10 8h420c4 0 4-4 4-8v-146h-434zM716 21.334c0-4 0-12-4-12h-420c-4 0-10 8-10 12v274c0 4 6 8 10 8h420c4 0 4-4 4-8zM948 277.334c0-44-44-90-88-90h-92v108c0 32-24 58-56 58h-420c-32 0-62-28-62-58v-108h-86c-42 0-92 46-92 90v256c0 44 50 90 92 90h612c-14-24-22-52-22-86 0-74 60-132 132-132 32 0 56 12 82 30z" />
<glyph unicode="&#xe030;" glyph-name="uniE030" d="M918 566.667c-28 96-116 164-220 160-62-2-120-32-160-78l-222 156c-4 4-12 4-18 0l-174-122c-2-2-4-2-8-6l-108-76c-8-6-10-16-4-22 2-4 8-6 12-6s8 2 10 2l38 26c0-4 0-8 0-12v-486c0-50 40-60 62-60h394c22 0 38 4 50 16 18 22 18 48 18 50v60c0-4 8-10 10-14 2-2 4-4 6-6 12-14 12-14 12-38-2-24-18-68-24-84l-8-12 14-8c28-16 56-24 86-24 50 0 80 24 82 26l10 8-6 10c0 0-22 54-26 86 0 2 0 4 0 6l36 32 86 88c88 8 156 86 154 176-2 68-42 126-102 152zM304 70.667c0 0-2-2-2-2h-106v192h112zM548 78.667c-6-6-14-10-28-10h-186c0 0-2 4-2 4v192c0 22-16 34-28 34h-110c-14 0-28-12-28-34v-196h-38c-4 0-38 4-38 32v488c0 28 28 52 42 62l8 6 168 116 210-148c-6-12-12-24-18-36-96-10-170-96-168-192 4-102 90-184 190-184 2 0 4 0 6 0 10 0 20 2 28 4 0 0 2-2 2-2v-104c0-2 0-22-10-32zM760 176.667l-38-36-2-4c-2 0-8-10-6-28 2-26 16-60 24-80-10-6-30-12-54-12-18 0-38 2-56 12 8 20 20 54 22 80 2 34-4 42-18 60l-6 8c-10 12-24 32-32 44l20 8 24-38 38-16 12 112h18l-6-134 30 18 62 72 26-4zM636 250.667c6 4 12 8 16 14l-4-34zM734 224.667l2 56c8-8 18-14 28-20zM852 270.667h-4c-38 0-74 16-100 44l-6 6-8-2c-6 0-14 0-22-2-14 0-26 2-40 4l-10 2-6-8c-28-42-76-70-128-72-86-2-158 68-160 154-4 84 64 156 148 160h10l4 10c26 74 94 124 172 128 4 0 4 0 8 0 86 0 160-60 182-144l2-8 8-2c52-20 88-70 90-126-2-76-62-142-140-144zM166 400.667h116v128h-116zM192 502.667h76v-76h-76z" />
<glyph unicode="&#xe032;" glyph-name="uniE032" d="M558 470.668v210h-92v-210h-208v-92h208v-208h92v208h210v92z" />
<glyph unicode="&#xe033;" glyph-name="uniE033" d="M256 470.668h512v-92h-512z" />
<glyph unicode="&#xe034;" glyph-name="uniE034" d="M335.332 572.668c46 32 72 76 62 106 0 2-2 4-4 6 0 0 0 0 0 0l-14 28c0 0 0 0 0 2-12 22-40 30-76 24l-26 46c8 12 12 24 8 34l-14 26c0 0 0 0 0 0-16 28-68 28-118 0s-78-72-64-100c2-2 2-4 4-6l22-22c0 0 0 0 0 0 6-6 16-8 28-8l32-44c-18-26-24-52-14-70 0-2 0-2 2-2l10-26c0 0 2-2 2-4 18-32 72-34 128-8 14-20 54-82 58-88 2-2 8-2 14 4 8 4 12 10 10 12zM463.332-83.332c-4 0-8 0-10 4 0 0-2 0-2 0-2 0-2-2-6-2-10-2-16-4-24 2-6 6-8 16-6 24 0 0 0 2-2 2 0 2 0 6-2 12 0 4 0 14-2 18 0 0-2 0-2 2h-4c-14 0-20 0-24 2-4 0-4 0-8 2-4-2-6-6-12-6-4 0-8 2-12 4 0-2-2-2-2-4-6-2-14-4-24 6-8 4-16 10-18 12v0c-2 0-4 2-6 4-2 4-4 6-4 10-2 0-4 4-8 8 0 0-2 6-2 14 0 0-2 0-2 0-8 0-12 4-26 26-4 6-4 14 2 20 4 4 12 6 18 4 2-2 4-2 6-4 2 2 4 4 8 4 0 2 2 6 4 8 0 0 2 2 4 2 4 4 6 4 8 8-2 0-2 0-4 0-4 2-8 6-8 10-2 4-8 24 6 32 4 2 12 6 16 8 0 6 0 14 4 18 0 2 2 4 2 6 2 4 4 8 8 10 2 4 6 12 14 12 0 2 0 6 0 12-2 2-6 2-8 4-18 6-18 6-20 10 0 0-18 18-10 34 2 2 2 4 4 4 2 2 2 2 2 2 2 8 4 12 6 12 0 2 2 4 4 6 0 0-2 0-2 0-2 2-2 2-4 4-2-2-6-4-10-4s-16 4-16 4c-14 4-18 14-18 18s2 6 4 10c0 2 0 4 0 6s0 2 0 4c-2 2-4 4-6 6 0 2-16 28-16 36-2 6-4 12-6 14 0 0 0 0 0 0-18-2-24-2-30 0-10 6-12 18-12 26v4c0 4-2 12-4 14 0 0-12 24-4 36 0 4 4 6 8 8 0 6 6 10 14 12h6c8 0 16-6 16-16 0-6-2-10-8-14 0-4-2-6-4-8 0 0 0-2 0-4 6-8 8-18 8-24v-4c2 0 2 0 4 2 6 2 10 2 10 2 12 0 20-14 24-18 2-4 6-16 8-22 2-2 10-20 14-26 2-2 4-2 6-6 6-6 6-14 6-18 0-2 0-2 0-4 0 0 0-2 0-2 2 2 6 4 8 4 8 0 12-4 20-10 2-2 2-2 2-2 6-4 18-14 20-20 6-12-4-22-8-26h-2c0-2-2-6-4-8s-2-2-2-2c0-4-2-8-4-8 4-2 6-2 10-4 24-10 26-10 30-16 2-6 2-12 0-22 0-4-2-4-2-6 0 0 0-2 0-4 0-4 2-10 2-12 0-10-10-16-16-18-2-2-6-2-10-2 0-4-2-8-4-12 0 0 0 0 0-2 0 0 0-4 0-4 0-6-2-10-10-18 0 0 2-2 4-4 0 0 6-10 0-20 2-2 2-4 2-6 0-10-4-12-24-28 0-2 0-2 0-2-2-4-4-8-6-8 2-4 6-12 4-20 0-2-2-4-2-4 4-4 8-8 8-16 0 0 2-2 2-2 2 0 6-4 6-4 2 0 2 0 2 0 6 2 12 4 18 0 0 0 2 0 2 0 2 0 6 4 8 4 8 4 16 0 18-4 0 0 2 0 2 0 4 0 14 0 16 0 4 0 4 0 6 0 10 0 20-6 24-12 6-6 8-16 10-36 0-2 0-2 0-4 2-2 4-4 4-6 0 0 2-2 2-2 4 0 10-2 12-4 4 2 6 4 10 4 6 0 10-4 14-4 0 2 4 4 4 6s2 4 2 4c2 4 6 12 26 8 6-2 8-4 12-8 2 8 6 14 12 16 4 2 6 2 10 2 0 0 2 0 2 0 0 2 0 4 0 6 0 8-2 18 10 24 0 0 0 0 0 0 8 2 12 0 16-4 0 8 4 14 6 16 4 4 8 4 12 8 2 0 2 0 2 0 8 4 14 4 26 2 4 0 6-2 10-2 12 6 14 4 24 2 4 2 6 2 8 2 6 0 20-4 24-6 2 0 6 0 8 0 8 0 16-4 18-12 2-4 4-8 6-14 2 0 6-2 8-6 10-2 16-2 20-2 6-2 8-6 12-12 4 0 6-2 10-2 0 4 0 8 0 10s0 4-2 8c0 4-2 8-2 12 0 2 0 6 0 10 0 6 0 14 0 18 0 2 0 6-2 6l8 6c-2 6-2 14 0 20 2 4 4 12 12 18 0 0 0 0 0 0v0c-2 2-8 6-8 6-4 4-6 8-6 14 0 4 2 14 8 18 2 4 4 4 8 4 0 2 0 4 0 4-2 8 2 14 10 22 4 6 12 8 18 10 0 0 0 0 2 2 0 2 4 2 4 4s4 4 8 8c0 2 0 2 0 2 0 4 2 6 2 8 0 4 2 8 4 12 2 2 4 4 4 6s0 4 2 8c0 0 0 2 2 2-4 2-8 4-8 8-6 12 2 22 8 26 0 2 0 2 2 2 2 4 16 18 16 20 2 2 8 8 12 10 2 2 6 4 12 10 4 4 10 10 16 16 0 2 0 2-2 2 0 4 0 10 4 14-4 6-4 14-4 16 0 0 0 2 0 2s0 2 0 2c0 4 0 8 0 12 0 2 2 8 4 12 2 2 4 4 6 6-4 4-2 10-2 12v2c0 0 0 0 0 2 0 0-2 8-2 10 0 6 2 10 2 12 0 0-2 2-4 2 0 2-2 2-4 2-2 2-4 4-16 10-2 2-2 2-4 4 0-2-2-4-4-4v-2c-8-4-36-4-36-4-6 0-8 4-10 6-4 0-8 0-10 0-8 2-12 8-16 12v0c0 0-2 2-4 4s-2 4-4 6c-2 2-4 4-6 8 0 2-2 2-2 2-2 2-2 6-4 8-4 0-8 2-12 4 0 0 0 0-2 0 0 0-2-2-2-2 0-2 0-4-2-6-2-4-8-10-22-6-10 2-14 14-14 22 0 4 0 8 0 10s-2 4-2 6c-4 0-8 2-10 4-4 0-8 4-10 10-2 0-4-2-6-2-8 0-8 2-30 24 0 0 0 0-2 0 0 0-4 0-4 2-8 2-10 8-16 24l-2 2c0 4 0 6 0 8-2 2-4 2-4 4-6 8-4 16 0 24 0 2-4 6-4 10 0 0 0 0 0 0-4-2-10-2-14 0-2 0-2 0-4 4 0 0 0 0-2 0-8-2-14 2-18 8 0 0-4 12-6 14-10 14-8 20-8 20s0 0 0 2c0 0 0 0-2 0-6 2-8 6-10 8s-6 4-6 4-6 6-6 10c0 2 0 6 2 12 0 0-4 4-4 6s-2 8 0 12c-2 2-2 4-4 6-6 8-2 14-2 18 0 0 0 0 0 2s0 2 0 4 0 2 0 2c0 2 0 2-2 4s-2 4-4 6c0 0-2 2-2 2 0 2-2 2-2 2-4 6-4 12-4 16 0 2 0 6 2 10-2 2-2 10 2 18 0 0 0 2 0 2 0 2 0 4 0 6 2 8 6 12 10 16 0 4 0 10 0 10s0 2 0 2c-2 2-4 6-4 10 0 2 2 6 4 10-6 0-12 4-14 6-4 6-4 14-4 18v0c0 8 0 12 0 18 0-4-2-4-4-6-4-4-12-8-22-12-10-2-16 0-22 2l-4 4c-6 2-12 6-16 8-6 4-10 6-10 14 0 2 0 2-2 2-4-2-8-4-12-4 0 0-2 0-4-2-6-2-10-2-12-2 0-2 0-6 0-8s-2-6-2-12c0-2 0-4 0-6v-2c0-4-2-8-2-8 0-8-4-14-12-20-4-2-8-2-12-4 0 0-2 0-2 0-2 0-2 0-4-2-6-6-12-6-14-6-2-2-2-4-4-6-4-2-6-4-8-4 0 0 0 0 0-2 0 0 0 0 0-2 0-8-6-16-16-16-8-2-16 6-16 16s0 14 4 20c4 6 8 8 10 10 4 4 6 10 16 12 2 2 6 4 8 4 8 6 16 8 20 8 0 0 0 0 0 0s0 0 0 2v2c0 2 2 6 2 10 0 0 2 4 2 4-2 24 0 28 2 32 4 6 10 10 14 10s10 0 12 0c2 0 4 0 4 0s0 0 2 0 4 0 6 0c2 0 2 0 2 0 6 6 18 8 24 8 18 0 24-12 24-18 0-2 0-4 0-6 0 0 0-2 0-2 2 0 6-2 8-4h4c2 0 2-2 4-2 0 0 0 0 2 2 0 2 0 4 0 6 2 8 8 16 22 16 4 0 6 0 8 0h4c8 0 14-6 16-8 0 0 2-2 2-2 2 0 12-8 10-22 0 0 0-2 0-2 0-4 0-8 0-12 0-2 0-4 0-4 0-2 4-2 4-4h2c4-2 12-6 14-18 2-4 2-6 2-8 0-6-2-8-4-10 0-2 0-6 0-8 0 0 0 0 0 2 0-4 0-18 0-22 0-2 0-6 0-6 0-4 0-8-4-12 8-8 4-16 2-20-2 0-2-2-2-4s-2-2-2-4c0 0 0 0-2 0 0 0 0-2 0-2 0-2 0-2 0-4 4-6 8-12 8-20 0-2 0-2 0-2 0-4 0-8 0-10 4-2 6-4 6-8 8-6 6-16 4-18 4-6 4-10 4-12 0 0 0-4-2-6 0 0 2-2 2-2s0 0 0 0c4 0 6 0 6-2 14-6 16-16 14-20 0 0 0-4-2-4 2 0 4 0 4-2 6-2 16-6 18-16 2-2 2-2 4-4 0 0 2 0 2 0 2 0 4 0 4-2 4 0 12-2 18-10 2-4 2-8 0-14 0 0 0-2 0-2s2 0 2-2c6-10 4-18 0-22 4-4 4-4 6-8 2-6 2-10 0-12 0-2 2-2 2-4 4-2 6-2 8-4l2-4c8-6 12-10 14-12 2 0 6 0 10-2 2 0 12-6 12-8 4 0 4-4 6-4 4 0 8 0 12-2s8-6 8-12c0 0 2-4 2-4 0-2 0-4 0-6 4 0 8 2 12 2 2 0 12-2 18-4 0 0 2 0 2 0 4 0 10 0 16-6 2-2 4-6 6-10 2-2 4-4 4-6s2-4 4-4c0-2 0-4 2-4 0 0 0 0 2-2s6-6 6-6c0 0 2-2 2-2 2 0 2 0 4 0 4 0 8 0 12-4 2 0 4-2 6-4 2 0 6 0 8 2 12 8 18 12 26 12 4-2 6-4 20-10 4-4 8-8 10-8 0 0 0 0 0 0 6 2 18 6 26 0 2 0 6-4 8-6 8-6 10-16 4-26-2-2-4-4-6-4-2-2-2-4-6-6 0-2-2-4-4-6 0-2 0-2 0-2 0-2 2-4 2-8 2-2 4-6 6-12 0 0 0 0 0-2 2-6 2-12-2-18-2-2-2-2-2-4-2-2-4-6-8-6 0-2 0-4 0-6s0-4 0-4c0 0 0 0 2-2 6-4 8-10 10-16 0-2 2-10 0-16-4-4-8-6-12-8 0 0 0-4-4-4 0-2-16-18-22-22s-12-10-16-14c-2 0-4-2-6-4-2 0-6-6-10-10 2-2 2-4 2-4 0-2 2-8-4-26 0 0 0-2 0-2-2-4-2-8-4-12 0-2-2-6-4-10-2-2-2-4-2-4 0-2 0-2-2-2 0-4 0-8 0-8-2-6-4-10-10-14-2-2-4-4-6-4-2-2-4-6-8-10-2 0-2 0-2 0-2-4-8-8-16-10 0 0 0 0-2 0 2-6 2-14 2-14 0-6-2-10-4-14 0 0-2 0-2 0 4-4 4-6 4-10 2-4 2-14-4-22 0 0 0 0-2 0-4-4-6-8-10-12 0 0 0 0 0 0 0-4 4-12 4-20 0-4 0-10 0-16 0-4 0-8 0-10s0-6 0-10c0-2 2-6 2-8 0-6 0-18 0-22 0-2 0-4 0-6 0-8 0-16-6-20-10-8-16-8-24-4-4 2-4 4-8 6 0 2 0 2-2 4-6-2-12-2-16 2-4 2-6 6-8 10 0 0-2 2-2 2-2 0-4 0-6 2-4 0-8 2-10 2-8 0-12 4-14 6-4 2-6 4-8 8-2 8-4 14-6 16-4 0-8 2-12 2 0 0-2 2-4 4-10-6-14-4-24 0-2 0-4-2-6-2-2-2-6-2-6-2-10-4-16 2-20 4-2 0-4 0-4 0 0-6 0-16-8-20 0 0-14-6-22-10-2-2-2-4-4-6h-2c-6-8-10-14-18-16 4-6 2-12 0-16s-6-8-16-8c-4 0-6 2-8 4-2 0-2 0-4 0-4 0-10 0-16 4-2 2-2 4-4 4-6-8-8-10-12-12-2-2-18-6-28 0-4-10-8-10-12-10zM431.332 922.668c4 0 10-4 12-10-4 6-8 10-12 10z" />
<glyph unicode="&#xe035;" glyph-name="uniE035" d="M224 338.667c-38 0-70 30-70 68 0 40 32 70 70 70s70-30 70-70c0-38-32-68-70-68zM408 338.667c-40 0-70 30-70 68 0 40 30 70 70 70 38 0 68-30 68-70 0-38-30-68-68-68zM590 338.667c-38 0-70 30-70 68 0 40 32 70 70 70s70-30 70-70c0-38-32-68-70-68zM870 922.667h-724c-74 0-142-68-142-142v-466c0-72 68-142 142-142h374c18-18 38-32 60-44 20-12 44-22 66-34 42-22 86-52 128-108 2-4 10 0 10 4-30 72-32 128-30 178 0 2 0 4 0 6h116c74 0 142 68 142 142v464c0 74-68 142-142 142zM962 338.667v-24c0-44-48-90-92-90h-160c0-16-2-32-2-52 0-4 0-8 0-10 2-22 4-48 16-76 2-2-2-4-4-2-18 24-36 38-54 52-24 14-46 24-66 36 0 0 0 0-2 0-16 10-28 22-38 38-4 4-4 8-6 14h-408c-44 0-90 48-90 90v466c0 46 46 92 90 92h724c46 0 92-48 92-92z" />
<glyph unicode="&#xe03b;" glyph-name="uniE03B" d="M144 234.668c0 0 138-114 206-8 0 0 22 36 28 76 0 0 2 36 38 56 0 0 4-52 52-74 4-2 8-4 12-2 0 0 0 4-6 8-10 4-10 2-14 4-10 10-24 24-24 34l34-14c0 0 22-8 26-40 0 0 2-24 14-46 0 0-78 8-124-78l-8 10c0 0 0-28-18-38 0 0-2 18-14 22 0 0-2-30-24-44 0 0 4 18-10 28 0 0-18-42-56-40 0 0 6 14 2 34 0 0-38-36-72-22 0 0 16 14 14 40 0 0-44-26-86 38 0 0 12-12 48 8-2-2-26 24-18 48zM202 848.668c0 0 48-8 10-92 0 0-18-66 18-94 0 0 6-6 10-14 0 0-46-18-14-102 0 0-32 10-42 28 0 0 6 4 10 20 0 0-24-10-42 16l22 14c0 0-20 0-44 32l28 12c0 0-28 6-38 34h26c0 0-24 42-16 64 0 0 18-14 32-18 0 0 14 22-6 44 0 0-8 18 2 44 0 0 0-4 18-8 0 0 16 0 26-36l4 4c-2 0-16 26-4 52zM588 350.668l30 4c0 0 142 16 140 202 0 0-4 110-84 160-6 4-18 12-30 16s-42 10-62-6c-10-4-18-16-22-24-2-10-4-32 28-60l12 14c0 0-22 18-16 34 6 18 22 16 24 16 20 0 84-4 120-126 0 0 20-96-50-170 0 0 10 46-42 122 0 0-46 66 18 146l-20 12c0 0-82-94-14-174 0 0 52-64 30-106-4-8-16-20-26-24-12-2-44-10-44-10zM666 732.668c0 0 36 44 142 54 0 0 8-30-52-48 0 0 4-12 54 2 0 0-20-48-82-24 0 0-26 8-44 2zM422 932.668c0 0 20-10 20-50l96-34c0 0 10 24 48 38 0 0-4 6-30 2 0 0-4 10-18 10 0 0-6-8 0-22 0 0-14-8-18-10 0 0-2 10-8 18 0 0 18 6 18 20 0 0-8-4-12-4 0 0 14 18-6 34 0 0-12-8-16-28 0 0-10 8-16 8 0 0-4-8 2-24 0 0-6-8-16-10 0 0-10 4-14 18l8 2c0 0 8 4 12 8 0 0-8 4-16 4l-2 2h2c0 0 0 24-34 18zM750 74.668c-4 10-8 22-8 22h32c-30 0-32 48-32 48-8 42 18 68 18 68-80-2-100 48-100 48-36 36-50 122-50 122s-2 8-4 14c-4 6-6 8-14 16-10 12-54 38-58 40-24 18-36 36-36 36-14-18-32-22-32-22l-2 8c76 48 46 122 46 122 2 16 14 36 14 36 54 72 18 174 18 174 14 24-4 28-4 28-20 2-20-6-20-6h-4v2l-56 20c-18 10-26 8-26 8-2-10 0-14 0-14 4-4 10-4 10-4 18 6 28-8 28-8l-2-2c-6 6-12 4-12 4-14 2-14-6-14-6-4-6-6 2-6 2v4c-16 4-14 24-14 24-26-2-48-10-48-10-10-4-6-10-6-10l8-10-4-14c-10-24 14-24 14-24h34c26-4 8-20 8-20 0-30-16-24-16-24-22 16-34 2-34 2-6-14 10-16 10-16 34-2 12-26 12-26-8-18-28-16-28-16-54 6-64-20-64-20-18-20-16-76-16-76-14 32 2 74 2 74-50-16-32-106-32-106-22 48-8 78-8 78-42-6-30-70-30-70l16-42-44-22c-36-22-60-2-60-2-64 60-136 2-136 2 36-24 76-12 76-12-10-16-52-34-52-34 70-26 90 4 90 4 8-28-6-44-6-44 26-8 58 26 58 26-2-16-14-28-14-28 24 0 52 32 52 32 0-16-10-28-10-28 34 6 54 36 54 36 0-16-10-30-10-30 20 2 34 18 34 18-38 28-28 48-28 48 10-44 50-52 50-52 30 6 50 56 50 56 24 52 52 48 52 48-36-16-38-36-38-36-12-54-32-62-32-62 6-20 50-32 50-32 12-6 28-14 38-20 72-36 78-102 78-102 12-68 66-86 66-86 106-34 98-110 98-110-6-112-74-154-74-154v0c20-6 32 0 32 0 6-16 0-28 0-28 56 6 84 68 84 68 14-18 36-18 36-18-16 22-10 70-10 70l20-14-10 26-4 18c8-8 26-16 26-16 4 8 0 16-6 24zM450 822.668c0 0 4 4 4 0h2l-2-2c0 0-4 0-8-2 0 0-4-2-6 2zM388 458.668l-20-6h-8l2 2 10 2c24 14 36 58 36 58 18 42 48 46 48 46l4-4-6-2c-30-12-34-46-34-46-2-42-32-50-32-50zM418 462.668l-4 4c28 12 38 44 38 44 10 56 40 56 40 56l-4-4c-20-8-24-46-24-46 0-46-46-54-46-54zM420 360.668c0 0 30 16 46-18l14-24c0 0 8-14 8-18 0 0-4 14-28 22 0 0-38 12-40 38zM442 874.668v-6l78-28 8 4zM326 836.668c0 0 2-60 56-60 0 0 8 6 42-12l-2-8c0 0-12 14-36 10 0 0-36-14-58 4-2 0-38 30-2 66z" />
<glyph unicode="&#xe03c;" glyph-name="uniE03C" d="M558 470.668v210h-92v-210h-208v-92h208v-208h92v208h210v92z" />
<glyph unicode="&#xe03d;" glyph-name="uniE03D" d="M396 218.001h-128v114c0 8-4 14-12 14s-12-6-12-14v-114h-116c-8 0-12-6-12-14 0-6 4-12 12-12h116v-128c0-8 4-12 12-12s12 4 12 12v128h128c8 0 14 6 14 12 0 8-6 14-14 14zM882 340.001h-314c-10 0-18 6-18 16 0 8 8 16 18 16h302l116 384h-722c-8 0-14 8-14 18 0 8 8 16 16 16h742c6 0 10-2 14-6 2-4 4-10 2-14l-124-416c-6-10-12-14-18-14zM330 508.001c-6 0-12 6-16 12l-100 350h-198c-8 0-16 6-16 16 0 8 8 16 16 16h210c6 0 12-4 14-12l106-362c2-8-2-18-12-18-2-2-2-2-4-2zM800 158.001c-36 0-66 30-66 66s30 66 66 66c36 0 66-30 66-66s-30-66-66-66zM800 270.001c-26 0-46-20-46-46s20-46 46-46c26 0 46 20 46 46s-20 46-46 46zM262-61.999c-144 0-260 118-260 260 0 146 118 262 260 262 146 0 262-118 262-262s-116-260-262-260zM262 428.001c-126 0-228-102-228-230 0-126 102-228 228-228 128 0 230 102 230 228 0 128-102 230-230 230z" />
<glyph unicode="&#xe03e;" glyph-name="uniE03E" d="M880 164.667h-502c-8 0-14 4-16 12l-146 516h-196c-10 0-18 8-18 16 0 10 8 18 18 18h208c8 0 12-6 16-12l28-104h732c6 0 12-2 14-6s4-10 2-14l-124-414c-2-8-8-12-16-12zM390 196.667h480l114 382h-702zM798-21.333c-36 0-66 30-66 66s30 68 66 68c38 0 68-30 68-68 0-36-30-66-68-66zM798 90.667c-24 0-46-20-46-46s20-48 46-48c28 0 48 20 48 48 0 24-20 46-48 46zM454-21.333c-36 0-68 30-68 66s30 68 68 68c36 0 66-30 66-68-2-36-32-66-66-66zM454 90.667c-26 0-48-20-48-46s20-48 48-48c26 0 46 20 46 48 0 24-22 46-46 46z" />
<glyph unicode="&#xe03f;" glyph-name="uniE03F" d="M358 542.668h-230c-8 0-12 4-12 12s4 12 12 12h230c8 0 14-4 14-12s-6-12-14-12zM716 478.668h-498c-8 0-14 4-14 12s6 12 14 12h498c8 0 14-4 14-12s-6-12-14-12zM716 414.668h-498c-8 0-14 4-14 12s6 12 14 12h498c8 0 14-4 14-12s-6-12-14-12zM716 336.668h-498c-8 0-14 6-14 14 0 6 6 12 14 12h498c8 0 14-6 14-12 0-8-6-14-14-14zM358 260.668h-230c-8 0-12 4-12 12s4 14 12 14h230c8 0 14-6 14-14s-6-12-14-12zM308 158.668h-180c-8 0-12 4-12 12s4 12 12 12h180c6 0 12-4 12-12s-6-12-12-12zM666 106.668h-448c-8 0-14 6-14 12 0 8 6 14 14 14h448c8 0 12-6 12-14 0-6-4-12-12-12zM858 68.668h-640c-8 0-14 4-14 12s6 14 14 14h640c8 0 12-6 12-14s-4-12-12-12zM308 16.668h-180c-8 0-12 6-12 14 0 6 4 12 12 12h180c6 0 12-6 12-12 0-8-6-14-12-14zM1008-17.332c4 12 4 34 4 34v850c0 52-60 72-88 72h-844c0 0 0-2 0-2-28 0-80-16-80-68v-878c0-2-2-30 20-50 14-18 36-26 64-26h836c28 0 46 4 64 20 22 20 22 28 24 48zM912 740.668c0-28-24-52-52-52s-52 24-52 52c0 28 24 50 52 50s52-22 52-50zM64 760.668c0 16 16 24 36 24h594c18 0 36-8 36-24v-40c0-18-18-26-36-26h-594c-20 0-36 8-36 26zM962-35.332c-10-10-24-12-42-12h-836c-18 0-30 2-40 12-10 12-6 24-6 26v640h932v-640c2 0 2-14-8-26z" />
</font>
</defs>
</svg>
